<?xml version="1.0" encoding="utf-8"?>
<!-- Generator: Adobe Illustrator 16.0.0, SVG Export Plug-In . SVG Version: 6.00 Build 0)  -->
<!DOCTYPE svg PUBLIC "-//W3C//DTD SVG 1.1//EN" "http://www.w3.org/Graphics/SVG/1.1/DTD/svg11.dtd">
<svg version="1.1" id="Layer_1" xmlns="http://www.w3.org/2000/svg" xmlns:xlink="http://www.w3.org/1999/xlink" x="0px" y="0px"
	 width="482.48px" height="482.48px" viewBox="0 0 482.48 482.48" enable-background="new 0 0 482.48 482.48" xml:space="preserve">
<rect x="139.966" y="181.133" fill="#EB232B" width="21.414" height="4.947"/>
<rect x="205.833" y="181.133" fill="#EB232B" width="21.414" height="4.947"/>
<rect x="98.799" y="428.132" fill="#EB232B" width="37.88" height="4.946"/>
<polygon fill="#EB232B" points="181.133,70.813 181.133,54.347 164.666,54.347 164.666,49.399 181.133,49.399 181.133,32.933 
	186.08,32.933 186.08,49.399 202.547,49.399 202.547,54.347 186.08,54.347 186.08,70.813 "/>
<polygon fill="#EB232B" points="247,449.546 247,433.08 230.533,433.08 230.533,428.132 247,428.132 247,411.666 251.946,411.666 
	251.946,428.132 268.414,428.132 268.414,433.08 251.946,433.08 251.946,449.546 "/>
<g>
	<defs>
		<rect id="SVGID_1_" width="482.48" height="482.48"/>
	</defs>
	<clipPath id="SVGID_2_">
		<use xlink:href="#SVGID_1_"  overflow="visible"/>
	</clipPath>
	<path clip-path="url(#SVGID_2_)" fill="#EB232B" d="M348.273,219.013c-1.364,0-2.475-1.11-2.475-2.473V18.939
		c0-1.363,1.11-2.473,2.475-2.473h30.46V2.473c0-1.364,1.108-2.473,2.473-2.473h49.401c1.362,0,2.473,1.109,2.473,2.473v13.993
		h30.46c1.363,0,2.473,1.11,2.473,2.473V216.54c0,1.363-1.109,2.473-2.473,2.473H348.273z M350.747,214.066h110.319V21.413H433.08
		v13.993c0,1.364-1.11,2.473-2.473,2.473h-49.401c-1.364,0-2.473-1.109-2.473-2.473V21.413h-27.986V214.066z M383.68,32.933h44.453
		V4.947H383.68V32.933z"/>
	<path clip-path="url(#SVGID_2_)" fill="#EB232B" d="M405.907,128.446c-0.383,0-1.117-0.094-1.748-0.725l-24.701-24.7
		c-0.461-0.462-0.726-1.099-0.726-1.749v-24.7c0.002-1.058,0.684-2.003,1.696-2.341l24.698-8.233c0.262-0.088,0.52-0.13,0.78-0.13
		c0.259,0,0.516,0.042,0.764,0.125l24.715,8.238c1.011,0.338,1.692,1.282,1.694,2.35v24.691c0,0.65-0.266,1.288-0.726,1.749
		l-24.7,24.7C407.022,128.353,406.288,128.446,405.907,128.446 M383.68,78.354v21.896l22.228,22.227l22.226-22.227V78.354
		l-22.226-7.409L383.68,78.354z"/>
	<path clip-path="url(#SVGID_2_)" fill="#EB232B" d="M405.906,400.146c-0.382,0-1.117-0.094-1.748-0.725l-19.212-19.213l3.496-3.496
		l17.464,17.464l40.753-40.755l3.498,3.498l-42.503,42.501C407.023,400.052,406.288,400.146,405.906,400.146"/>
	<path clip-path="url(#SVGID_2_)" fill="#EB232B" d="M405.906,482.48c-0.685,0-1.355-0.28-1.84-0.769l-36.854-38.199v36.494
		c0,1.364-1.109,2.474-2.473,2.474H2.473c-1.364,0-2.473-1.109-2.473-2.474v-87.603c-0.042-17.259,12.256-31.938,29.241-34.921
		l110.725-19.524V299.65l-3.113-1.61c-1.98-1.024-3.891-2.177-5.914-3.397l-2.544-1.529H84.806
		c-19.523,0-35.406-15.884-35.406-35.406v-92.132c0.028-15.439,5.343-30.6,14.965-42.68l17.567-22.05L49.568,19.847
		c-0.274-0.698-0.21-1.507,0.19-2.186c0.375-0.629,1.044-1.062,1.816-1.155l131.76-16.47c0.083-0.011,0.178-0.016,0.273-0.016
		c0.094,0,0.189,0.005,0.282,0.017l131.724,16.466c0.798,0.096,1.467,0.529,1.862,1.191c0.38,0.646,0.444,1.455,0.158,2.184
		l-32.354,80.974l17.577,21.966c9.602,12.103,14.918,27.3,14.957,42.77v92.119c0,19.522-15.884,35.406-35.406,35.406h-43.588
		l-2.543,1.528c-2.023,1.221-3.934,2.374-5.915,3.398l-3.113,1.61v38.304l102.086,18.096v-24.243
		c-0.007-0.982,0.55-1.84,1.418-2.221l74.118-32.942c0.376-0.173,0.701-0.244,1.037-0.244s0.662,0.071,0.969,0.213l74.169,32.965
		c0.886,0.39,1.442,1.246,1.436,2.189l-0.001,49.44c-0.019,15.451-6.4,30.479-17.509,41.225l-57.279,59.337
		C407.261,482.2,406.591,482.48,405.906,482.48 M309.58,477.533h52.687v-39.127L346.913,422.5l-0.071-0.068
		c-11.107-10.745-17.489-25.773-17.509-41.232v-20.136l-102.086-18.096v21.772c-0.033,10.402-8.537,18.907-18.959,18.94H186.08
		v93.853h118.553v-41.167h4.947V477.533z M62.58,477.533h118.553V383.68h-22.227c-10.402-0.033-18.907-8.538-18.94-18.958v-21.748
		L30.042,362.357c-14.583,2.62-25.13,15.261-25.096,30.061v85.115h52.687v-41.167h4.947V477.533z M405.906,476.44l55.347-57.302
		c10.349-9.833,16.28-23.649,16.28-37.932v-47.793l-71.627-31.871l-71.626,31.871v47.793c-0.013,14.12,5.795,27.804,15.947,37.615
		c0.177,0.2,0.367,0.39,0.57,0.563L405.906,476.44z M144.913,364.74c0,7.716,6.278,13.993,13.993,13.993h49.4
		c7.716,0,13.994-6.277,13.994-13.993v-62.625l-7.558,2.482c-10.065,3.307-20.541,4.983-31.135,4.983
		c-10.596,0-21.071-1.677-31.137-4.983l-7.557-2.482V364.74z M88.941,225.816c8.414,45.67,48.227,78.816,94.666,78.816
		c46.438,0,86.25-33.146,94.665-78.816l1.254-6.803H87.688L88.941,225.816z M224.818,131.755c0.45,0,0.895,0.115,1.287,0.331
		l57.56,32.893c0.745,0.43,1.218,1.253,1.215,2.14v41.187c-0.005,26.299-10.074,51.193-28.351,70.096l-9.44,9.764h35.317
		c16.751-0.052,30.407-13.706,30.46-30.44v-92.151c-0.013-14.34-4.93-28.418-13.847-39.646l-17.802-22.181H85.994l-17.783,22.158
		c-8.935,11.252-13.852,25.33-13.865,39.664v92.138c0.053,16.753,13.709,30.407,30.443,30.459h35.335l-9.441-9.764
		c-18.277-18.902-28.345-43.797-28.35-70.097V167.14c0.003-1.132,0.785-2.117,1.9-2.38L224.2,131.827
		C224.4,131.78,224.609,131.755,224.818,131.755 M87.28,169.079v44.987h192.653v-45.491l-55.502-31.77L87.28,169.079z
		 M55.362,20.982l31.142,77.817H280.71l31.141-77.817l-128.244-16L55.362,20.982z"/>
</g>
</svg>
