<?xml version="1.0" encoding="utf-8"?>
<!-- Generator: Adobe Illustrator 16.0.0, SVG Export Plug-In . SVG Version: 6.00 Build 0)  -->
<!DOCTYPE svg PUBLIC "-//W3C//DTD SVG 1.1//EN" "http://www.w3.org/Graphics/SVG/1.1/DTD/svg11.dtd">
<svg version="1.1" id="Layer_1" xmlns="http://www.w3.org/2000/svg" xmlns:xlink="http://www.w3.org/1999/xlink" x="0px" y="0px"
	 width="497.48px" height="398.964px" viewBox="0 0 497.48 398.964" enable-background="new 0 0 497.48 398.964"
	 xml:space="preserve">
<g>
	<defs>
		<rect id="SVGID_1_" width="497.48" height="398.964"/>
	</defs>
	<clipPath id="SVGID_2_">
		<use xlink:href="#SVGID_1_"  overflow="visible"/>
	</clipPath>
	<path clip-path="url(#SVGID_2_)" fill="#EB232B" d="M51.708,325.076c-1.351,0-2.449-1.099-2.449-2.449s1.098-2.45,2.449-2.45
		h90.307c1.35,0,2.45,1.1,2.45,2.45s-1.1,2.449-2.45,2.449H51.708z"/>
	<path clip-path="url(#SVGID_2_)" fill="#EB232B" d="M166.644,325.076c-1.351,0-2.45-1.099-2.45-2.449s1.099-2.45,2.45-2.45h8.21
		c1.351,0,2.45,1.1,2.45,2.45s-1.099,2.449-2.45,2.449H166.644z"/>
	<path clip-path="url(#SVGID_2_)" fill="#EB232B" d="M215.901,308.657c-1.351,0-2.449-1.1-2.449-2.45V160.883h-13.97
		c-1.351,0-2.45-1.1-2.45-2.45c0-1.351,1.099-2.45,2.45-2.45h16.419c1.351,0,2.45,1.099,2.45,2.45v147.774
		C218.352,307.558,217.252,308.657,215.901,308.657"/>
	<path clip-path="url(#SVGID_2_)" fill="#EB232B" d="M347.257,398.965c-1.351,0-2.45-1.101-2.45-2.451v-38.599H18.869
		C8.48,357.902,0.012,349.435,0,339.039V43.498c0.012-10.388,8.48-18.856,18.876-18.869h46.801V2.449c0-1.351,1.1-2.45,2.451-2.45
		c1.35,0,2.449,1.099,2.449,2.45v22.179h68.987V2.449c0-1.351,1.1-2.45,2.45-2.45c1.351,0,2.451,1.099,2.451,2.45v22.179h68.987
		V2.449c0-1.351,1.098-2.45,2.449-2.45s2.45,1.099,2.45,2.45v22.179h68.988V2.449c0-1.351,1.1-2.45,2.45-2.45
		s2.449,1.099,2.449,2.45v22.179h68.987V2.449c0-1.351,1.1-2.45,2.449-2.45c1.352,0,2.451,1.099,2.451,2.45v22.179h46.808
		c10.389,0.013,18.857,8.481,18.87,18.876v153.364l8.072-3.539c4.087-1.792,8.404-2.96,12.833-3.471
		c1.458-0.162,2.943-0.245,4.39-0.245c8.915,0,16.697,3.071,22.506,8.88c6.741,6.732,9.805,16.29,8.628,26.918
		c-0.857,7.139-3.426,14.123-7.419,20.145l-5.933,8.943h20.15c1.351,0,2.449,1.1,2.449,2.45v41.049c0,1.351-1.099,2.449-2.449,2.449
		h-13.97v96.066c0,1.351-1.1,2.451-2.45,2.451H347.257z M440.013,394.063h36.147v-93.616h-36.147V394.063z M390.755,394.063h44.358
		v-93.616h-44.358V394.063z M349.706,394.063h36.149v-93.616h-36.149V394.063z M4.9,339.046c0.008,7.696,6.272,13.961,13.961,13.97
		h325.945v-52.568h-13.97c-1.351,0-2.449-1.099-2.449-2.449v-41.049c0-1.351,1.099-2.45,2.449-2.45h24.257l-5.934-8.944
		c-3.996-6.023-6.562-13.005-7.419-20.192c-1.171-10.569,1.892-20.131,8.633-26.876c5.8-5.805,13.578-8.874,22.49-8.874
		c1.449,0,2.938,0.084,4.426,0.249c10.416,1.154,20.639,6.277,28.786,14.425c1.515,1.528,2.858,3.252,3.974,5.108l4.937,8.2
		l4.935-8.2c1.116-1.854,2.46-3.578,3.994-5.127c0.368-0.366,0.771-0.745,1.173-1.124l1.812-1.705l0.004-2.492V95.206H4.9V339.046z
		 M333.287,295.549h159.294V259.4H333.287V295.549z M457.044,194.521c-1.251,0-2.536,0.071-3.818,0.214
		c-9.316,1.029-18.503,5.651-25.865,13.015c-7.728,7.727-10.313,23.437-6.912,42.025l0.864,4.724h44.075l1.43-0.927
		c1.232-0.8,2.406-1.741,3.483-2.799c7.405-7.403,12.027-16.59,13.058-25.907c1.015-9.104-1.548-17.243-7.217-22.911
		C471.355,197.163,464.571,194.521,457.044,194.521 M372.921,194.52c-7.51,0-14.288,2.638-19.083,7.429
		c-5.674,5.667-8.239,13.81-7.223,22.923c1.029,9.313,5.651,18.499,13.015,25.862c1.117,1.095,2.289,2.036,3.523,2.837l1.431,0.929
		h44.076l0.864-4.724c3.4-18.588,0.816-34.299-6.912-42.026c-7.361-7.362-16.548-11.985-25.866-13.014
		C375.465,194.591,374.175,194.52,372.921,194.52 M18.862,29.528C11.172,29.538,4.908,35.801,4.9,43.491v46.814h422.003V43.498
		c-0.008-7.696-6.271-13.96-13.963-13.969h-46.814v22.179c0,1.351-1.1,2.45-2.451,2.45c-1.35,0-2.449-1.099-2.449-2.45V29.528
		h-68.987v22.179c0,1.351-1.099,2.45-2.449,2.45s-2.45-1.099-2.45-2.45V29.528h-68.988v22.179c0,1.351-1.099,2.45-2.45,2.45
		s-2.449-1.099-2.449-2.45V29.528h-68.987v22.179c0,1.351-1.1,2.45-2.451,2.45c-1.35,0-2.45-1.099-2.45-2.45V29.528H70.577v22.179
		c0,1.351-1.099,2.45-2.449,2.45c-1.351,0-2.451-1.099-2.451-2.45V29.528H18.862z"/>
</g>
</svg>
