<?xml version="1.0" encoding="utf-8"?>
<!-- Generator: Adobe Illustrator 16.0.0, SVG Export Plug-In . SVG Version: 6.00 Build 0)  -->
<!DOCTYPE svg PUBLIC "-//W3C//DTD SVG 1.1//EN" "http://www.w3.org/Graphics/SVG/1.1/DTD/svg11.dtd">
<svg version="1.1" id="Layer_1" xmlns="http://www.w3.org/2000/svg" xmlns:xlink="http://www.w3.org/1999/xlink" x="0px" y="0px"
	 width="94.88px" height="94.581px" viewBox="0 0 94.88 94.581" enable-background="new 0 0 94.88 94.581" xml:space="preserve">
<g>
	<defs>
		<rect id="SVGID_1_" width="94.88" height="94.581"/>
	</defs>
	<clipPath id="SVGID_2_">
		<use xlink:href="#SVGID_1_"  overflow="visible"/>
	</clipPath>
	<path clip-path="url(#SVGID_2_)" fill="#1F20B3" d="M45.044,94.54l-3.036-0.121l-7.786-1.392l-6.605-2.586l-5.776-3.401
		l-5.865-4.135l-5.364-6.166L6.655,71.5L2.9,63.316l-1.45-5.649L0,48.527l1.053-9.688l0.92-4.733l3.471-8.815l2.505-3.853
		l5.363-7.118l3.21-2.828l6.536-4.802l3.005-1.796l3.673-1.591L33.9,1.979l4.48-1.013L42.991,0.3L47.585,0l4.37,0.089l3.979,0.48
		l3.407,0.864l7.563,2.741l3.886,1.775l7.118,5.271l3.516,2.933l5.802,7.389l2.298,4.23l3.762,8.87l0.007,0.039l0.033,0.063
		l1.219,9.003l0.335,5.753l-1.188,8.849L91.54,64.48l-3.291,7.413c-0.047,0.066-4.295,5.664-4.295,5.664
		c-0.042,0.046-4.511,4.946-4.511,4.946l-5.462,4.418l-6.957,3.649l-2.938,1.042l-6.102,1.966l-6.517,1.003L45.044,94.54z
		 M42.053,94.161l8.182,0.054l-1.159-2.457l-9.752-0.043L42.053,94.161z M49.349,91.73l1.167,2.472l8.335-1.28l0.449-2.719
		L49.349,91.73z M30.891,90.576l3.378,2.188l7.311,1.32l-2.621-2.353l-7.964-1.418L30.891,90.576z M59.571,90.147l-0.447,2.7
		l7.704-2.481l1.782-2.839l0.203-0.33L59.571,90.147z M24.868,88.524l2.862,1.688l4.05,1.587l0.131-0.256l-2.262-1.465l-4.656-1.812
		L24.868,88.524z M39.065,91.455l9.924,0.045l-1.416-5.272l-11.166-0.003L39.065,91.455z M47.834,86.204l1.418,5.28l10.073-1.546
		l-0.134-5.47L47.834,86.204z M29.77,89.837l8.984,1.575l-2.642-5.199l-10.057-1.679L29.77,89.837z M69.231,87.049l-1.913,3.078
		l6.474-3.395l2.633-3.106l-0.177-0.221L69.231,87.049z M59.447,84.412l0.134,5.462l9.411-3.004l1.054-5.779L59.447,84.412z
		 M21.961,86.791l7.384,2.89L25.716,84.5l-8.191-3.112L21.961,86.791z M70.326,80.989l-1.048,5.744l8.024-4.167l2.021-6.145
		L70.326,80.989z M34.044,77.986l2.251,7.981l11.221,0.002l-1.554-8.055L34.044,77.986z M46.22,77.893l1.555,8.06l11.399-1.742
		l-0.824-8.162L46.22,77.893z M25.869,84.241l10.149,1.694l-2.246-7.962l-10.739-1.648L25.869,84.241z M12.235,78.214l3.913,4.502
		l4.193,2.954l0.194-0.209l-3.491-4.252l-4.618-3.208L12.235,78.214z M77.509,82.742l-1.674,1.982l0.201,0.204l3.232-2.612
		l2.121-2.324l-0.197-0.21L77.509,82.742z M58.604,75.992l0.824,8.156L70.08,80.81l-0.142-8.272L58.604,75.992z M17.217,80.995
		l8.341,3.144l-2.82-7.872l-8.773-3.121L17.217,80.995z M79.689,76.215l-2.021,6.068l6.048-4.86l2.7-6.493L79.689,76.215z
		 M10.796,76.533l0.05,0.06l5.987,4.148l-3.185-7.688l-6.291-4.207L10.796,76.533z M70.194,72.443l0.142,8.252l9.083-4.611
		l0.425-8.364L70.194,72.443z M32.404,67.351l1.58,10.378l11.935-0.072l-1.567-10.476L32.404,67.351z M22.952,76.053l10.768,1.651
		l-1.578-10.366l-10.763-1.46L22.952,76.053z M44.609,67.157l1.568,10.48l12.142-1.846L56.782,65.32L44.609,67.157z M13.851,72.832
		l8.828,3.139L21.11,65.824l-8.805-2.874L13.851,72.832z M80.109,67.574l-0.422,8.314l6.912-5.432l0.828-8.405L80.109,67.574z
		 M57.035,65.267l1.536,10.466l11.35-3.46L68.43,61.919L57.035,65.267z M86.848,70.574l-2.073,5.009l0.248,0.142l2.986-3.937
		l2.371-5.327l-0.246-0.147L86.848,70.574z M4.127,65.375l2.748,5.993l2.493,3.301l0.247-0.146l-2.662-5.949l-2.581-3.348
		L4.127,65.375z M7.177,68.417l6.386,4.24l-1.537-9.815l-6.349-3.93L7.177,68.417z M68.677,61.83l1.49,10.341l9.676-4.737
		l-1.436-10.136L68.677,61.83z M87.736,61.79l-0.487,4.705l-0.354,3.596l4.376-5.673l0.281-2.081l0.789-6.274L87.736,61.79z
		 M3.133,63.175l0.266,0.373l3.11,4.022l0.256-0.109L5.39,58.749l-3.675-4.52L3.133,63.175z M78.648,57.168l1.432,10.104
		l7.367-5.558l-1.375-9.831L78.648,57.168z M31.674,55.02l0.702,12.073l11.942-0.17l-1.436-12.169L31.674,55.02z M21.354,65.614
		l10.763,1.46l-0.701-12.065l-10.111-1.16L21.354,65.614z M43.138,54.731l1.437,12.171l12.166-1.836l-2.176-12.046L43.138,54.731z
		 M12.277,62.671l8.819,2.878l-0.049-11.748l-8.304-2.413L12.277,62.671z M54.817,52.968l2.176,12.043l11.388-3.346l-2.837-11.712
		L54.817,52.968z M5.64,58.587l6.385,3.95l0.464-11.246l-6.037-3.38L5.64,58.587z M92.659,55.643l-0.793,6.275l0.278,0.065
		l1.298-3.695l0.846-6.297l-0.278-0.068L92.659,55.643z M65.788,49.868l2.836,11.701l9.73-4.532l-3.355-11.205L65.788,49.868z
		 M86.307,51.695l1.364,9.764l4.721-5.868l-1.309-9.446L86.307,51.695z M1.647,53.739l3.755,4.585l0.804-10.578l-3.573-3.971
		L1.647,53.739z M75.231,45.711l3.351,11.187l7.435-5.292l-3.69-10.582L75.231,45.711z M31.956,41.991l-0.287,12.771l11.186-0.266
		l-1.167-12.833L31.956,41.991z M21.32,53.592l10.092,1.157l0.287-12.767l-8.811-0.814L21.32,53.592z M91.317,45.826l1.187,8.694
		l0.278,0.03l1.824-5.023l-1.216-8.943L91.317,45.826z M41.944,41.64l1.168,12.835l11.403-1.707l-2.648-12.6L41.944,41.64z
		 M12.773,51.127l8.294,2.411l1.567-12.413l-7.29-1.835L12.773,51.127z M52.119,40.115l2.649,12.599l10.704-3.009l-4.004-12.091
		L52.119,40.115z M1.161,40.228l-0.9,8.244l0.991,3.808l0.282-0.021L2.4,43.513l-0.489-1.706l-0.469-1.603L1.161,40.228z
		 M82.541,40.857l3.677,10.544l4.806-5.583l-3.831-9.894L82.541,40.857z M6.492,47.639l6.04,3.381l2.567-11.816l-5.37-2.648
		L6.492,47.639z M61.713,37.532l4.002,12.086l9.194-4.028l-5.1-11.37L61.713,37.532z M2.68,43.442l3.6,4l3.223-11.032L6.24,33.223
		L2.68,43.442z M87.378,35.69l3.794,9.8l2.141-5.41l-3.782-9.162L87.378,35.69z M70.04,34.105l5.096,11.36l7.087-4.681
		l-5.859-10.512L70.04,34.105z M1.335,38.813l1.209,4.237l3.488-10.015l-1.041-3.059l-0.13-0.37L1.335,38.813z M33.236,29.402
		l-1.262,12.329l9.694-0.325l-0.79-12.334L33.236,29.402z M22.939,40.915l8.776,0.811l1.262-12.328l-6.956-0.492L22.939,40.915z
		 M41.135,29.047l0.79,12.335l9.884-1.467l-2.886-12.014L41.135,29.047z M15.42,39.043l7.264,1.83l3.081-12.006l-5.817-1.242
		L15.42,39.043z M76.572,30.118l5.848,10.492l4.655-4.937l-6.253-9.598L76.572,30.118z M49.176,27.851l2.887,12.013l9.314-2.492
		L56.55,25.974L49.176,27.851z M9.824,36.314l5.354,2.641l4.524-11.41l-4.361-1.859L9.824,36.314z M89.577,27.269l0.086,3.27
		l1.684,4.102l1.614,3.916l0.277-0.063l-0.198-3.747l-3.187-7.539L89.577,27.269z M56.796,25.894l4.827,11.397l8.063-3.298
		l-6.442-10.557L56.796,25.894z M6.349,32.969l3.265,3.19l5.506-10.605l-2.74-2.295L6.349,32.969z M2.219,34.179l-0.32,1.642
		l0.276,0.078l2.562-6.689l0.216-1.19l-0.276-0.078L2.219,34.179z M80.996,25.868l6.222,9.552l2.169-4.812l-6.29-8.686
		L80.996,25.868z M63.479,23.326l6.44,10.552l6.3-3.818l-7.615-9.573L63.479,23.326z M5.01,29.251l1.207,3.44l5.986-9.638
		l-1.112-2.513L5.01,29.251z M83.21,21.59l6.187,8.59l-0.112-4.255l-2.045-2.699l-3.941-5.116L83.21,21.59z M68.814,20.338
		l7.609,9.564l4.239-4.032l-8.3-8.536L68.814,20.338z M35.375,18.326l-2.098,10.817l7.589-0.328l-0.354-10.754L35.375,18.326z
		 M26.109,28.653l6.905,0.489l2.099-10.819l-4.701-0.243L26.109,28.653z M40.769,18.036l0.354,10.754l7.735-1.139L46,17.271
		L40.769,18.036z M20.072,27.389l5.773,1.233l4.303-10.576l-3.977-0.713L20.072,27.389z M5.706,25.365l-0.493,2.667l0.26,0.108
		l5.5-7.88l0.275-1.887l-0.258-0.105L5.706,25.365z M46.253,17.222l2.859,10.379l7.323-1.864l-5.207-9.726L46.253,17.222z
		 M15.488,25.469l4.328,1.845l6.1-10.057l-3.038-1.112L15.488,25.469z M51.479,15.933l5.207,9.727l6.399-2.439l-7.213-8.856
		L51.479,15.933z M72.535,17.142l8.28,8.515l2.102-3.949l-8.5-7.518L72.535,17.142z M12.537,23.054l2.726,2.284l7.386-9.319
		l-1.978-1.407L12.537,23.054z M56.116,14.254l7.214,8.859l5.085-2.818l-8.747-7.848L56.116,14.254z M82.853,16.847l0.431,0.818
		l4.14,5.378l0.24-0.157l-0.653-1.202l-3.917-4.993L82.853,16.847z M11.272,20.313l1.117,2.524l8.107-8.414L19.6,12.847
		L11.272,20.313z M74.524,13.94l8.434,7.459l0.091-3.593l-8.243-6.558L74.524,13.94z M59.891,12.302l8.748,7.848l3.521-2.981
		l-9.735-6.783L59.891,12.302z M11.64,17.408l-0.348,2.542l8.216-7.367l0.103-1.596L11.64,17.408z M35.598,9.566L30.55,17.83
		l4.625,0.239l2.701-8.492l-2.167-0.079L35.598,9.566z M38.146,9.578l-2.699,8.486l5.062-0.261l0.079-8.367L38.146,9.578z
		 M26.357,17.104l3.906,0.701l5.097-8.343l-1.891-0.288L26.357,17.104z M40.846,9.411l-0.079,8.366l5.158-0.755l-2.588-7.973
		L40.846,9.411z M23.087,15.947l2.983,1.092l7.121-7.94l-1.455-0.462L23.087,15.947z M62.606,10.197l9.729,6.78l1.872-2.937
		L64.045,8.303L62.606,10.197z M43.592,8.999l2.588,7.975l4.901-1.193l-5.117-7.339L43.592,8.999z M74.018,9.27l0.773,1.62
		l7.453,5.947l0.217-0.18l-1.205-2.291l-7.022-5.274L74.018,9.27z M13.531,14.473l-0.597,0.909l-0.391,0.607l0.211,0.191
		l6.887-5.548l0.475-0.764l-0.21-0.19L13.531,14.473z M20.881,14.445l1.947,1.384l8.66-7.32L30.52,7.921L20.881,14.445z
		 M46.223,8.364l5.121,7.343l4.323-1.542l-7.344-6.511L46.223,8.364z M19.809,12.693l0.889,1.564l9.636-6.522l-0.476-0.662
		L19.809,12.693z M48.584,7.54l7.352,6.518l3.488-1.775l-9.131-5.551L48.584,7.54z M64.156,8.069l10.126,5.715l0.282-2.705
		L64.519,6.323L64.156,8.069z M19.883,10.787l-0.106,1.629l9.987-5.584l-0.026-0.68L19.883,10.787z M50.538,6.58l9.143,5.558
		l2.488-1.882L51.776,5.729L50.538,6.58z M64.526,6.042l9.903,4.689l-1.102-2.306L63.94,4.56L64.526,6.042z M29.746,5.356
		l-8.65,3.451L20.34,9.996l-0.249,0.408l9.633-4.53l0.185-0.285l0.189-0.349L29.746,5.356z M52.037,5.467l0.121,0.149l10.223,4.452
		l1.416-1.864L52.712,4.705L52.037,5.467z M35.877,9.23l0.307,0.026l1.79,0.065l2.199-4.163l-0.231-0.167L35.877,9.23z
		 M38.271,9.312l2.328-0.135l0.36-4.361l-0.271-0.079L38.271,9.312z M33.754,8.957l1.771,0.27l3.57-3.724l-0.187-0.217L33.754,8.957
		z M41.232,4.636L40.86,9.147l2.384-0.346l-1.735-4.209L41.232,4.636z M32.041,8.462l1.357,0.431l4.419-3.148L37.667,5.5
		L32.041,8.462z M41.833,4.703l1.67,4.052l2.261-0.53l-3.697-3.679L41.833,4.703z M30.804,7.792l0.908,0.553l4.791-2.522
		l-0.12-0.262L30.804,7.792z M42.7,4.811l3.354,3.338l1.983-0.67l-5.165-2.895L42.7,4.811z M23.273,6.884l-0.094,0.043l-0.963,0.855
		l0.149,0.242l7.936-3.166l0.133-0.11L30.29,4.505L23.273,6.884z M52.834,4.473L63.913,7.97l0.351-1.684l-0.129-0.083L53.082,3.71
		L52.834,4.473z M30.105,6.978l0.457,0.633l4.8-1.919L35.267,5.42L30.105,6.978z M63.153,3.662l0.607,0.537l8.089,3.339l0.147-0.244
		l-1.308-1.099l-7.391-2.776L63.153,3.662z M43.844,4.833l4.514,2.53l1.599-0.757L43.96,4.57L43.844,4.833z M29.993,6.056
		l0.025,0.678l4.584-1.382L34.53,5.073L29.993,6.056z M45.143,4.7l5.138,1.744l1.156-0.793l-6.22-1.228L45.143,4.7z M53.099,3.451
		l11.117,2.506L63.617,4.44L52.913,2.798L53.099,3.451z M26.199,5.119l-0.798,0.471l0.12,0.26l4.5-1.525L29.935,4.05L26.199,5.119z
		 M30.478,5.078l-0.372,0.69l4.296-0.931l-0.05-0.283L30.478,5.078z M46.419,4.396l5.294,1.046l0.692-0.781L46.46,4.113
		L46.419,4.396z M31.566,4.097l-0.449,0.37l-0.335,0.309l4.087-0.552l-0.027-0.287L31.566,4.097z M47.463,3.947l5.118,0.472
		l0.237-0.732l-5.341-0.028L47.463,3.947z M52.762,2.488L63.296,4.13l-1.354-1.195L52.27,2.006L52.762,2.488z M32.445,3.524
		l0.082,0.267l3.438-0.168l0.001-0.287l-2.942-0.164L32.445,3.524z M48.062,3.117l0.01,0.288l4.754,0.025L52.64,2.776L48.062,3.117z
		 M39.732,1.06l1.415,2.13l0.67-2.431L39.732,1.06z M37.5,1.547l3.326,1.624l-1.373-2.066L37.5,1.547z M34.095,2.702l0.05,0.275
		l3.357,0.187l0.036-0.285L34.92,2.342L34.095,2.702z M42.094,0.726l-0.652,2.364L44.1,0.595L42.094,0.726z M35.416,2.18
		l3.696,0.758l0.092-0.271l-2.1-1.025L35.416,2.18z M48.056,2.57l0.031,0.285l4.354-0.322l-0.566-0.552L48.056,2.57z M51.834,1.661
		l0.097,0.046l5.128,0.487l3.327,0.31l0.074-0.275l-1.154-0.532l-7.403-0.31L51.834,1.661z M47.38,2.124l0.058,0.281l4.054-0.625
		l-0.905-0.438L47.38,2.124z M42.809,2.161l0.167,0.232l3.306-1.782L44.5,0.574L42.809,2.161z M46.758,0.646L44.504,1.86
		l0.073,0.287l3.156-1.132l-0.031-0.279L46.87,0.635L46.758,0.646z M46.107,1.872l0.083,0.276l3.331-0.812l0.002-0.279l-0.661-0.173
		L46.107,1.872z M52.19,0.853l-0.005,0.288l4.521,0.183l0.042-0.284l-0.847-0.214L52.19,0.853z"/>
</g>
</svg>
