<?xml version="1.0" encoding="utf-8"?>
<!-- Generator: Adobe Illustrator 16.0.0, SVG Export Plug-In . SVG Version: 6.00 Build 0)  -->
<!DOCTYPE svg PUBLIC "-//W3C//DTD SVG 1.1//EN" "http://www.w3.org/Graphics/SVG/1.1/DTD/svg11.dtd">
<svg version="1.1" id="Layer_1" xmlns="http://www.w3.org/2000/svg" xmlns:xlink="http://www.w3.org/1999/xlink" x="0px" y="0px"
	 width="564.338px" height="259.388px" viewBox="0 0 564.338 259.388" enable-background="new 0 0 564.338 259.388"
	 xml:space="preserve">
<g>
	<polygon fill-rule="evenodd" clip-rule="evenodd" fill="#B3B3B3" points="184.358,76.96 208.21,81.259 209.071,102.103 
		220.888,95.872 230.773,115.209 230.985,115.209 236.144,107.26 263.002,64.284 268.159,55.69 272.025,48.601 268.374,49.888 	"/>
	<polygon fill-rule="evenodd" clip-rule="evenodd" fill="#00CCFF" points="218.308,87.707 231.203,113.49 240.657,98.234 
		269.878,51.177 244.093,69.225 231.203,78.468 	"/>
	<polygon fill-rule="evenodd" clip-rule="evenodd" fill="#00CCFF" points="188.227,76.749 208.64,80.187 269.448,50.317 	"/>
	<polygon fill-rule="evenodd" clip-rule="evenodd" fill="#336666" points="209.071,81.047 209.715,99.741 217.664,86.847 
		268.804,51.177 	"/>
	<polygon fill-rule="evenodd" clip-rule="evenodd" fill="#4D4D4D" points="210.357,100.384 220.458,94.583 217.664,88.779 	"/>
	<text transform="matrix(1 0 0 1 232.0674 236.6182)" fill="#00CCFF" font-family="'ArialRoundedMTBold'" font-size="38.4619">H</text>
	<text transform="matrix(1 0 0 1 269.0264 236.6182)" fill="#00CCFF" font-family="'ArialRoundedMTBold'" font-size="38.4619">E</text>
	<text transform="matrix(1 0 0 1 302.335 236.6182)" fill="#00CCFF" font-family="'ArialRoundedMTBold'" font-size="38.4619">A</text>
	<text transform="matrix(1 0 0 1 337.5674 236.6182)" fill="#00CCFF" font-family="'ArialRoundedMTBold'" font-size="38.4619">L</text>
	<text transform="matrix(1 0 0 1 363.5635 236.6182)" fill="#00CCFF" font-family="'ArialRoundedMTBold'" font-size="38.4619">T</text>
	<text transform="matrix(1 0 0 1 395.1455 236.6182)" fill="#00CCFF" font-family="'ArialRoundedMTBold'" font-size="38.4619">H</text>
	<text transform="matrix(1 0 0 1 432.1064 236.6182)" fill="#00CCFF" font-family="'ArialRoundedMTBold'" font-size="38.4619">C</text>
	<text transform="matrix(1 0 0 1 468.2178 236.6182)" fill="#00CCFF" font-family="'ArialRoundedMTBold'" font-size="38.4619">A</text>
	<text transform="matrix(1 0 0 1 503.4541 236.6182)" fill="#00CCFF" font-family="'ArialRoundedMTBold'" font-size="38.4619">R</text>
	<g>
		<defs>
			<rect id="SVGID_1_" width="556.931" height="259.388"/>
		</defs>
		<clipPath id="SVGID_2_">
			<use xlink:href="#SVGID_1_"  overflow="visible"/>
		</clipPath>
		<g clip-path="url(#SVGID_2_)">
			<text transform="matrix(1 0 0 1 538.6846 236.6182)" fill="#00CCFF" font-family="'ArialRoundedMTBold'" font-size="38.4619">E</text>
		</g>
	</g>
	<g>
		<defs>
			<path id="SVGID_3_" d="M126.128,258.31l1.075,0.436v-2.149l-1.075-0.43V258.31z M123.551,257.667l2.578,0.643v-2.144
				l-2.578-0.858V257.667z M122.69,257.238l0.86,0.429v-2.359l-0.86-0.217V257.238z M121.187,256.809l1.504,0.43v-2.147
				l-1.504-0.433V256.809z M120.328,256.596l0.859,0.213v-2.15l-0.859-0.216V256.596z M118.61,256.166l1.718,0.43v-2.153
				l-1.718-0.643V256.166z M115.599,255.091l3.011,1.075V253.8l-3.011-0.858V255.091z M112.808,254.229l2.791,0.861v-2.149
				l-2.791-0.859V254.229z M111.518,251.65v2.149l0.429,0.216l0.86,0.214v-2.147l-0.86-0.432H111.518z M109.37,253.157l2.148,0.643
				v-2.149l-2.148-0.643V253.157z M108.938,253.157h0.431v-2.149l-0.431-0.217V253.157z M107.22,252.512l1.719,0.646v-2.366
				l-1.719-0.643V252.512z M106.146,252.299l1.073,0.213v-2.363l-1.073-0.216V252.299z M105.071,251.869l1.075,0.43v-2.366
				l-1.075-0.213V251.869z M102.277,251.008l2.794,0.861v-2.149l-2.794-1.072V251.008z M99.916,247.999v2.149l2.361,0.859v-2.36
				L99.916,247.999z M98.194,249.72l1.722,0.429v-2.149l-1.722-0.646V249.72z M95.618,248.86l2.576,0.859v-2.366l-2.576-0.643
				V248.86z M92.395,247.789l3.223,1.071v-2.149l-3.223-1.078V247.789z M90.461,247.354l1.934,0.436v-2.156l-1.934-0.643V247.354z
				 M87.024,246.281l3.437,1.072v-2.363l-3.437-1.072V246.281z M81.866,244.561l1.075,0.43v-2.366l-1.075-0.21V244.561z
				 M76.279,242.844l5.586,1.717v-2.146l-5.586-1.721V242.844z M71.336,241.339l4.943,1.505v-2.15l-4.943-1.501V241.339z
				 M115.599,241.339l2.151,0.427l0.431-2.144l-2.582-0.43V241.339z M112.808,240.693l2.791,0.646v-2.146l-2.791-0.862V240.693z
				 M68.115,240.265l3.221,1.074v-2.146l-3.221-1.078V240.265z M111.518,238.114v2.15h0.429l0.86,0.429v-2.363l-0.86-0.216H111.518z
				 M66.18,239.622l1.935,0.643v-2.15l-1.935-0.643V239.622z M108.938,237.472v2.15l0.431,0.213l2.148,0.43v-2.15l-2.148-0.643
				H108.938z M107.22,239.192l1.719,0.43v-2.15l-1.719-0.43V239.192z M106.146,238.973l1.073,0.22v-2.15l-1.073-0.213V238.973z
				 M105.071,238.763l1.075,0.21v-2.144l-1.075-0.216V238.763z M102.277,238.114l2.794,0.648v-2.149l-2.794-0.859V238.114z
				 M99.916,235.319v2.152l2.361,0.643v-2.36L99.916,235.319z M98.194,237.042l1.722,0.43v-2.152l-1.722-0.427V237.042z
				 M63.386,238.763l2.794,0.859v-2.15l-2.068-0.619l0.135,0.403l-0.215-0.427l0.08,0.023l-0.726-2.176V238.763z M56.081,236.613
				l0.859,0.216v-2.366l-0.859-0.216V236.613z M95.618,236.396l2.576,0.646v-2.149l-2.576-0.646V236.396z M54.36,235.965
				l1.721,0.648v-2.366l-1.721-0.43V235.965z M62.957,238.763h0.429v-4.086l-0.429-1.072V238.763z M92.395,235.535l3.223,0.861
				v-2.149l-3.223-0.858V235.535z M90.461,235.105l1.934,0.43v-2.146l-1.934-0.433V235.105z M87.024,234.247l3.437,0.858v-2.149
				l-3.437-0.854V234.247z M48.346,232.103l3.868,3.217l0.431,0.216l1.716,0.43v-2.147l-0.857-0.429l-5.157-4.084V232.103z
				 M61.238,235.319l0.215,0.646h-0.215l-4.298-1.502v2.366l4.298,1.285l1.719,0.648v-5.158l-1.719-4.942V235.319z M71.336,230.596
				l4.943,1.072v-2.145l-4.943-1.294V230.596z M68.115,229.737l3.221,0.858v-2.366l-3.221-0.643V229.737z M66.18,229.305
				l1.935,0.433v-2.15l-1.935-0.648V229.305z M62.957,226.296v2.15h0.429l2.794,0.858v-2.366l-2.794-0.643H62.957z M61.238,228.017
				l1.719,0.43v-2.15l-1.719-0.43V228.017z M54.36,224.579l1.721,1.074v-2.576l-1.721-1.078V224.579z M123.551,223.501h0.43
				l0.429-2.145l-0.859-0.216V223.501z M84.013,241.981v1.078l-1.072-0.436v2.366l1.072,0.213l0.218,0.22l2.363,0.643l0.431,0.216
				v-2.363l-0.86-0.216l-0.859-9.885l1.719,0.43v-2.145l-1.936-0.435l-1.076-10.74V241.981z M122.69,223.287l0.86,0.214v-2.36
				l-0.86-0.213V223.287z M121.187,222.858l1.504,0.429v-2.359l-1.504-0.217V222.858z M120.328,222.645l0.859,0.214v-2.147
				l-0.859-0.213V222.645z M42.114,226.729l1.29,1.288h0.216l1.932,1.721l2.794,2.365v-2.798l-1.504-1.288l-1.719-1.288
				c-0.431-1.291-1.719-3.651-3.009-6.443V226.729z M118.61,222.216l1.718,0.429v-2.146l-1.718-0.43V222.216z M38.032,222.858
				l1.288,1.078v-3.009l-1.288-1.078V222.858z M115.599,221.57l3.011,0.646v-2.147l-3.011-0.643V221.57z M112.808,220.928
				l2.791,0.643v-2.145l-2.791-0.648V220.928z M111.947,220.711l0.86,0.217v-2.15l-0.86-0.213V220.711z M111.518,220.711h0.429
				v-2.146l-0.429-0.216V220.711z M48.346,220.711l6.014,3.868v-2.58l-6.014-3.867V220.711z M108.938,217.919v2.149h0.431
				l2.148,0.643v-2.362l-2.148-0.43H108.938z M36.099,220.711l1.934,2.147v-3.009l-1.934-2.147V220.711z M107.22,219.637
				l1.719,0.432v-2.149l-1.719-0.43V219.637z M40.61,221.999c0,0.217,0.216,0.217,0.216,0.43l-0.216-0.213l-1.29-1.288v3.009
				l1.29,1.285l1.504,1.507v-6.443c-0.431-1.078-1.075-1.937-1.504-3.015V221.999z M106.146,219.426l1.073,0.211v-2.147l-1.073-0.43
				V219.426z M105.071,219.207l1.075,0.219v-2.366l-1.075-0.219V219.207z M34.809,219.426l1.29,1.285v-3.009l-1.29-1.291V219.426z
				 M34.38,219.207l0.429,0.219v-3.015l-0.429-0.213V219.207z M102.277,218.349l2.794,0.858v-2.366l-2.794-0.643V218.349z
				 M99.916,215.769v2.15l2.361,0.43v-2.15L99.916,215.769z M98.194,217.489l1.722,0.43v-2.15l-1.722-0.429V217.489z
				 M95.618,216.841l2.576,0.648v-2.149l-2.576-0.643V216.841z M32.661,217.271l1.719,1.937v-3.009l-1.719-1.937V217.271z
				 M42.114,216.628l6.232,4.083v-2.579l-6.232-3.87V216.628z M92.395,216.198l3.223,0.643v-2.144l-3.223-0.859V216.198z
				 M90.461,215.553l1.934,0.646v-2.36l-1.934-0.435V215.553z M40.61,215.769l1.504,0.859v-2.366l-1.504-1.072V215.769z
				 M87.024,214.91l3.437,0.643v-2.149l-3.437-0.643V214.91z M39.32,219.426c0.43,0.859,0.859,1.715,1.29,2.573v-4.729
				c-0.431-0.859-0.86-1.502-1.29-2.36l1.29,0.858v-2.579l-1.29-0.858V219.426z M84.013,214.052l3.012,0.858v-2.149l-3.012-0.859
				V214.052z M38.032,217.271c0.431,0.648,0.86,1.507,1.288,2.155v-7.095l-1.288-0.646V217.271z M82.941,233.389l1.072,8.593
				v-21.054l-0.859-6.876h0.859v-2.15l-1.072-0.216V233.389z M82.941,211.686v-0.213V211.686z M56.94,221.141l0.646,2.796
				l-0.646-0.217l-0.859-0.643v2.576l0.859,0.427l1.504,1.078l2.794,8.161v-6.657l-0.214-0.646h0.214v-2.15l-1.075-0.213
				l-0.43-1.504L56.94,210.4V221.141z M68.115,210.4l3.221,0.858v-2.149l-3.221-0.859V210.4z M66.18,209.968l1.935,0.433v-2.15
				l-1.935-0.435V209.968z M63.386,209.322l2.794,0.646v-2.152l-2.794-0.643V209.322z M32.661,209.752l1.719,1.721v-3.009
				l-1.719-1.508V209.752z M62.957,209.322h0.429v-2.149l-0.429-0.217V209.322z M61.238,208.894l1.719,0.429v-2.366l-1.719-0.426
				V208.894z M56.94,207.815l4.298,1.078v-2.363l-4.298-0.859V207.815z M56.081,216.841l0.859,4.3V210.4l-0.644-2.799l0.644,0.214
				v-2.145l-0.859-0.216V216.841z M26.216,209.752l1.072,2.366l0.215,0.426l5.158,4.727v-3.009l-3.438-3.219l-3.007-5.801V209.752z
				 M36.099,213.189c0.43,0.862,1.075,2.363,1.934,4.081v-5.585l-0.646-0.427l-1.288-7.524V213.189z M25.139,208.034l1.077,1.718
				v-4.51l-1.077-1.721V208.034z M26.216,203.951l6.445,5.801v-2.796l-6.445-5.795V203.951z M81.866,221.57l0.86,9.455l-0.86-0.217
				l-5.586-1.285v2.145l5.586,1.288l1.075,0.433v-21.916l-1.075-10.96V221.57z M25.139,203.092l1.077,0.859v-2.79l-1.077-0.861
				V203.092z M22.563,200.726v2.366l1.288,2.363v-3.651v3.651l1.288,2.579v-4.513l-0.214-0.643l0.214,0.213V200.3l-1.288-1.291
				v2.795v-2.795l-1.288-1.075V200.726z M40.61,199.654l1.504,0.858v-2.579l-1.504-0.643V199.654z M34.809,208.25v0.644l-0.429-0.43
				v3.009l0.429,0.213l0.86,0.858c0,0.217,0.214,0.433,0.429,0.646v-9.455l-1.29-6.876V208.25z M39.32,199.009l1.29,0.646v-2.363
				l-1.29-0.858V199.009z M38.032,198.366l1.288,0.643v-2.576l-1.288-0.646V198.366z M36.099,197.075l1.934,1.291v-2.579
				l-1.934-1.072V197.075z M34.809,196.433l1.29,0.643v-2.36l-1.29-0.648V196.433z M34.38,206.743l0.429,1.507v-11.392l-0.215-0.426
				h0.215v-2.366l-0.429-0.214V206.743z M106.146,191.058v2.149h1.073l1.719,0.217v-2.15l-1.719-0.216H106.146z M105.071,192.994
				l1.075,0.213v-2.149l-1.075-0.213V192.994z M102.277,192.778l2.794,0.216v-2.149l-2.794-0.217V192.778z M99.916,190.412v2.152
				l2.361,0.214v-2.15L99.916,190.412z M98.194,192.349l1.722,0.216v-2.152l-1.722-0.213V192.349z M95.618,192.136l2.576,0.213
				v-2.149l-2.576-0.214V192.136z M92.395,191.916l3.223,0.22v-2.15l-3.223-0.216V191.916z M90.461,191.706l1.934,0.21v-2.146
				l-1.934-0.219V191.706z M87.024,191.487l3.437,0.219v-2.155l-3.437-0.211V191.487z M84.013,191.273l3.012,0.214v-2.147
				l-3.012-0.213V191.273z M81.866,188.908v2.149h1.075l1.072,0.216v-2.146l-1.072-0.219H81.866z M112.808,201.585l1.719-0.211
				l-1.719-13.968V201.585z M23.851,187.836l1.288,1.291v-2.796l-1.288-1.291V187.836z M68.115,186.978l3.221,1.071v-2.149
				l-3.221-1.072V186.978z M22.563,186.978l1.288,0.858v-2.796l-1.288-0.858V186.978z M66.18,186.331l1.935,0.646v-2.15
				l-1.935-0.858V186.331z M63.386,185.476l2.794,0.855v-2.362l-2.794-0.859V185.476z M62.957,185.257l0.429,0.219v-2.366
				l-0.429-0.213V185.257z M61.238,184.614l1.719,0.643v-2.36l-1.719-0.436V184.614z M12.034,186.118l3.866,5.798v-3.867
				l-3.866-6.011V186.118z M19.981,184.614l2.582,2.363v-2.796l-2.582-2.363V184.614z M56.94,183.323l4.298,1.291v-2.153
				l-4.298-1.501V183.323z M56.081,182.896l0.859,0.427v-2.363l-0.859-0.213V182.896z M111.947,197.504l0.431,4.081h0.43v-14.179
				l-0.86-7.954V197.504z M142.03,182.248l2.578,6.879l2.147-0.648l-4.725-12.248V182.248z M111.518,194.066l0.429,3.438v-18.052
				l-0.429-3.65V194.066z M140.956,179.672l1.075,2.576v-6.018l-1.075-2.573V179.672z M40.61,175.588l1.504,0.643v-2.359
				l-1.504-0.648V175.588z M39.32,174.942l1.29,0.646v-2.365l-1.29-0.643V174.942z M38.032,174.3l1.288,0.643v-2.362l-1.288-0.646
				V174.3z M36.099,173.223l1.934,1.077v-2.365l-1.934-1.072V173.223z M138.806,173.871l2.15,5.801v-6.015l-2.15-5.804V173.871z
				 M137.301,169.784l1.504,4.087v-6.018l-1.504-4.08V169.784z M25.139,164.632l1.077,0.858v-2.795l-1.077-0.859V164.632z
				 M136.444,167.638l0.857,2.146v-6.011l-0.857-2.15V167.638z M165.237,169.571l0.643,3.222l2.151-0.43l-2.794-11.176V169.571z
				 M23.851,163.344l1.288,1.288v-2.796l-1.288-1.291V163.344z M92.395,160.545v2.15h3.223c0.86,0,1.719,0.213,2.576,0.213v-2.144
				c-0.857,0-1.716-0.22-2.576-0.22H92.395z M90.461,162.481c0.644,0,1.288,0.214,1.934,0.214v-2.15c-0.646,0-1.29,0-1.934-0.216
				V162.481z M87.024,162.266c1.072,0.216,2.146,0.216,3.437,0.216v-2.152c-1.29,0-2.365,0-3.437-0.213V162.266z M84.013,162.05
				c0.862,0,1.935,0.216,3.012,0.216v-2.149c-1.077,0-2.15-0.214-3.012-0.214V162.05z M82.941,161.836
				c0.429,0,0.643,0.214,1.072,0.214v-2.147c-0.429,0-0.643-0.216-1.072-0.216V161.836z M22.563,162.266l1.288,1.078v-2.799
				l-1.288-1.074V162.266z M19.981,159.902l2.582,2.363v-2.795l-2.582-2.576V159.902z M68.115,159.257
				c1.074,0.214,2.147,0.43,3.221,0.646v-2.146c-1.074-0.219-2.147-0.43-3.221-0.861V159.257z M19.338,159.471l0.643,0.432v-3.008
				l-0.643-0.43V159.471z M66.18,158.614c0.646,0.214,1.29,0.43,1.935,0.643v-2.362c-0.646,0-1.29-0.217-1.935-0.43V158.614z
				 M62.957,155.606v2.149c0.215,0,0.215,0.213,0.429,0.213c0.86,0.217,1.721,0.43,2.794,0.646v-2.149
				c-1.073-0.213-1.934-0.43-2.794-0.858H62.957z M61.238,157.326c0.644,0.211,1.075,0.43,1.719,0.43v-2.149
				c-0.644-0.214-1.075-0.43-1.719-0.646V157.326z M163.302,163.124l1.935,6.447v-8.384l-1.935-6.44V163.124z M109.37,175.588
				l1.719,15.899l-1.719-0.214h-0.431v2.15h0.431l2.148,0.213v-17.835l-1.719-13.32c0.644-0.216,1.075-0.216,1.719-0.216v-2.149
				c-0.644,0-1.29,0.213-1.934,0.213l-0.214-6.012V175.588z M54.36,154.747c0.431,0.43,1.078,0.646,1.721,0.859v-2.366
				c-0.643-0.214-1.29-0.43-1.721-0.643V154.747z M162.658,160.329l0.644,2.795v-8.377l-0.644-2.795V160.329z M108.938,173.223
				l0.431,2.365v-21.271l-0.431-4.086V173.223z M48.346,152.168c1.934,1.072,3.868,1.931,6.014,2.579v-2.149
				c-2.146-0.859-4.081-1.721-6.014-2.793V152.168z M133.434,160.116l3.01,7.521v-6.015l-1.288-3.225
				c0.429,0,0.859-0.213,1.288-0.213v-2.366c-0.647,0.216-1.288,0.433-1.72,0.433l-1.29-6.447V160.116z M42.114,149.159
				c1.934,1.072,4.082,2.15,6.232,3.009v-2.363c-2.15-0.858-4.298-2.152-6.232-3.225V149.159z M40.61,148.088
				c0.429,0.423,1.073,0.643,1.504,1.071v-2.579c-0.431-0.213-1.075-0.643-1.504-0.858V148.088z M34.809,144.431
				c0.431,0.213,0.86,0.648,1.29,0.861v-2.579c-0.429-0.43-0.858-0.643-1.29-1.072V144.431z M34.38,144.217
				c0.214,0,0.214,0,0.429,0.214v-2.79c-0.215,0-0.215,0-0.429-0.219V144.217z M32.661,142.713c0.43,0.43,1.075,1.072,1.719,1.504
				v-2.795c-0.644-0.43-1.29-0.858-1.719-1.288V142.713z M131.287,149.589l1.287,7.306c-0.429,0-0.857,0.213-1.287,0.213
				c-0.646,0.219-1.507,0.219-2.15,0.43c-0.644,0.219-1.288,0.219-1.934,0.432c-0.43,0-0.859,0.217-1.075,0.217
				c-0.858,0.213-1.719,0.213-2.578,0.429c-0.215,0-0.646,0-0.86,0.214c-0.644,0-1.075,0-1.504,0.216h-0.859
				c-0.646,0.213-1.288,0.213-1.718,0.213c-1.076,0.214-1.934,0.43-3.011,0.43c-0.857,0.216-1.716,0.216-2.791,0.216
				c-0.215,0.214-0.644,0.214-0.86,0.214h-0.429v2.149h0.429c0.216,0,0.646,0,0.86-0.216c1.075,0,1.934,0,2.791-0.214
				c1.078,0,1.935-0.213,3.011-0.429h0.213c0.429,0,0.859,0,1.504-0.22h0.859c0.429-0.21,0.86-0.21,1.504-0.21
				c0.215-0.213,0.646-0.213,0.86-0.213c0.859-0.22,1.719-0.22,2.578-0.436c0.216,0,0.646-0.213,1.075-0.213
				c0.646-0.214,1.29-0.214,1.934-0.43c0.643,0,1.504-0.216,2.15-0.43c0.644,0,1.287-0.213,1.717-0.429l0.43,1.288v-10.312
				l-2.147-13.322V149.589z M26.216,137.128c1.932,1.934,4.081,3.864,6.445,5.585v-2.579c-2.364-1.934-4.513-3.867-6.445-6.015
				V137.128z M157.716,141.641l1.719,6.228c-0.646,0.433-1.075,0.643-1.719,0.862c-0.646,0.216-1.29,0.429-1.935,0.858
				c-1.29,0.43-2.578,0.858-3.868,1.501c-3.222,1.078-6.66,2.15-9.883,3.228c-0.431,0.211-0.646,0.211-1.075,0.211
				c-0.646,0.219-1.504,0.432-2.15,0.648c-0.644,0.216-1.074,0.43-1.504,0.43c-0.429,0.213-0.644,0.213-0.857,0.213v2.366
				c0.213-0.217,0.428-0.217,0.857-0.217c0.431-0.213,0.86-0.432,1.504-0.432c0.646-0.211,1.504-0.43,2.15-0.643
				c0.429-0.217,0.644-0.217,1.075-0.43c3.223-0.858,6.661-1.937,9.883-3.225c1.29-0.43,2.578-0.859,3.868-1.502
				c0.646-0.213,1.29-0.429,1.935-0.648c0.859-0.423,1.504-0.643,2.148-1.071l2.794,10.311v-8.377l-0.646-2.793
				c0.213,0,0.431-0.213,0.646-0.213v-2.366c-0.433,0.216-0.862,0.216-1.291,0.43l-3.651-13.749V141.641z M25.139,136.267
				c0.429,0.216,0.647,0.646,1.077,0.861v-3.009c-0.43-0.432-0.647-0.646-1.077-1.075V136.267z M95.618,130.252v2.149h2.576
				c0.433,0,1.077,0.214,1.722,0.214v-2.15c-0.646,0-1.29,0-1.722-0.213H95.618z M92.395,132.183c1.075,0,2.148,0.219,3.223,0.219
				v-2.149c-1.075,0-2.148-0.216-3.223-0.216V132.183z M179.63,134.546l1.075,1.721c-0.214,0.216-0.644,0.429-1.075,0.861
				c-2.576,1.504-5.156,3.222-7.949,4.724c-0.43,0.219-0.859,0.432-1.289,0.648c-1.72,1.071-3.439,1.931-5.155,2.792
				c-0.647,0.216-1.29,0.646-1.935,0.858c-0.215,0.217-0.429,0.217-0.644,0.43v2.366c0.215-0.216,0.429-0.216,0.644-0.436
				c0.646-0.21,1.288-0.643,1.935-0.858c1.716-0.856,3.435-1.715,5.155-2.573c0.43-0.22,0.859-0.436,1.289-0.648
				c2.793-1.505,5.373-3.222,7.949-4.939c1.935-1.078,3.654-2.15,5.373-3.438v-2.579c-0.86,0.646-1.719,1.072-2.579,1.718
				l-2.794-5.155V134.546z M90.461,131.967c0.644,0.216,1.288,0.216,1.934,0.216v-2.146c-0.646,0-1.29,0-1.934-0.213V131.967z
				 M87.024,131.753c1.072,0,2.146,0.214,3.437,0.214v-2.144c-1.29,0-2.365-0.216-3.437-0.216V131.753z M81.866,131.107h1.075
				v-2.145c-0.43,0-0.644,0-1.075-0.216V131.107z M76.279,130.036c1.719,0.429,3.653,0.646,5.586,1.071v-2.361
				c-1.934-0.213-3.867-0.643-5.586-0.86V130.036z M19.981,130.252l2.582,3.222v-3.438c-0.86-1.074-1.935-2.363-2.582-3.439V130.252
				z M71.336,128.962c1.719,0.213,3.223,0.644,4.943,1.074v-2.15c-1.72-0.43-3.225-0.86-4.943-1.29V128.962z M19.338,129.606
				c0.213,0.216,0.431,0.43,0.643,0.646v-3.655c-0.212-0.213-0.43-0.43-0.643-0.643V129.606z M155.781,134.333l1.935,7.308v-8.38
				l-1.935-7.307V134.333z M68.115,127.886c1.074,0.429,2.147,0.647,3.221,1.076v-2.366c-1.074-0.213-2.147-0.43-3.221-0.859
				V127.886z M66.18,127.457c0.646,0.216,1.29,0.43,1.935,0.43v-2.148c-0.646-0.213-1.29-0.431-1.935-0.643V127.457z
				 M61.238,125.738c0.43,0.216,0.86,0.216,1.29,0.429l-1.29,6.234l-4.298,21.055c-0.43,0-0.644-0.216-0.859-0.216v2.366h0.429
				l-0.429,3.864l-1.721,14.187l-0.857,6.015l-5.157-2.579l-6.232-3.222v2.359l6.232,3.222l4.942,2.366l0.643,22.564l-5.585-3.009
				l-6.232-3.44v2.579l6.232,3.222l5.585,3.222l0.429,1.294l1.721,8.591v-11.386l-0.643-22.774l0.643,0.216v-2.149l-0.431-0.217
				l0.431-3.867l0.859-6.879l1.719-13.319c0.86,0.213,1.719,0.643,2.579,0.861v-2.366c-0.86-0.213-1.504-0.432-2.364-0.643
				l2.364-11.175l1.719-8.167v-10.958c-0.644-0.211-1.075-0.429-1.719-0.643V125.738z M56.94,124.017
				c1.292,0.647,2.793,1.078,4.298,1.721v-2.363c-1.504-0.429-3.005-1.076-4.298-1.719V124.017z M56.081,123.588
				c0.215,0.218,0.644,0.218,0.859,0.429v-2.361c-0.215-0.216-0.644-0.216-0.859-0.43V123.588z M129.137,136.053l2.15,13.536
				v-13.106l-1.075-6.66c0.43,0,0.646-0.216,1.075-0.216v-2.15c-0.43,0-0.86,0.216-1.29,0.216l-0.86-7.094V136.053z M54.36,122.728
				c0.431,0.431,1.078,0.647,1.721,0.86v-2.362c-0.643-0.217-1.29-0.429-1.721-0.86V122.728z M15.9,124.235
				c1.075,1.719,2.15,3.651,3.438,5.372v-3.652c-1.288-2.148-2.363-4.085-3.438-6.23V124.235z M171.681,119.724l7.949,14.822v-4.51
				l-7.949-14.614V119.724z M151.913,120.154l0.43,1.285c-0.215,0-0.43,0.216-0.43,0.216c-3.222,1.072-6.445,2.15-9.883,3.222
				c-0.431,0-0.646,0-1.075,0.218c-0.646,0.211-1.504,0.429-2.15,0.643c-0.644,0-1.074,0.216-1.504,0.216
				c-0.429,0.213-0.644,0.213-0.857,0.213c-1.076,0.216-1.935,0.647-3.01,0.647c-0.643,0.212-1.29,0.429-2.147,0.643v2.15
				c0.857-0.213,1.504-0.431,2.147-0.431c1.075-0.213,1.934-0.43,3.01-0.643c0.213-0.218,0.428-0.218,0.857-0.218
				c0.431-0.212,0.86-0.212,1.504-0.429c0.646-0.213,1.504-0.43,2.15-0.643c0.429,0,0.644-0.217,1.075-0.217
				c3.438-0.859,6.661-1.931,9.883-3.22c0.215,0,0.645-0.218,1.074-0.431l2.794,10.958v-8.379l-0.859-3.227
				c0.43-0.212,0.644-0.212,0.859-0.429v-2.144c-0.429,0.212-0.859,0.425-1.504,0.425l-2.363-6.66V120.154z M40.61,114.566
				c0.429,0.43,1.073,0.856,1.504,1.072v-2.578c-0.431-0.431-1.075-0.86-1.504-1.073V114.566z M39.32,113.49
				c0.43,0.429,0.859,0.647,1.29,1.076v-2.579c-0.431-0.216-0.86-0.647-1.29-1.077V113.49z M38.032,112.63
				c0.431,0.218,0.86,0.647,1.288,0.86v-2.58c-0.428-0.213-0.857-0.643-1.288-1.072V112.63z M127.204,122.945l0.646,5.158h-0.646
				c-0.43,0.212-0.859,0.212-1.075,0.212c-0.858,0.218-1.719,0.218-2.578,0.431c-0.215,0-0.646,0-0.86,0.216
				c-0.644,0-1.075,0-1.504,0.213h-0.859c-0.431,0-0.646,0.218-1.075,0.218h-0.643c-1.076,0.213-1.934,0.213-3.011,0.429
				c-0.857,0-1.716,0-2.791,0.213h-0.86h-0.429c-0.859,0-1.504,0.216-2.148,0.216h-0.431v2.149h0.431
				c0.644,0,1.29-0.219,2.148-0.219h0.429h0.86c1.075-0.216,1.934-0.216,2.791-0.216c1.078-0.214,1.935-0.214,3.011-0.427h1.072
				c0.214,0,0.429-0.216,0.646-0.216h0.859c0.429-0.217,0.86-0.217,1.504-0.217c0.215,0,0.646-0.213,0.86-0.213
				c0.859,0,1.719-0.213,2.578-0.43c0.216,0,0.646,0,1.075-0.213h0.86l1.074,5.801v-15.474l-1.934-16.115V122.945z M18.971,192.761
				l0.152,0.233l0.215,1.931L18.971,192.761z M32.661,107.26c0.215,0.429,0.644,0.86,1.075,1.29l-1.075,2.791l-6.445,14.184
				l-1.077,2.148l-1.288,3.009l-0.216,0.643c-0.429-0.43-0.643-0.859-1.072-1.288v3.438v0.214l-2.582,11.392l-0.643,1.931
				l-1.719,7.308l-1.719-2.365l-3.866-4.942v3.438l3.866,5.159l1.29,1.501l-0.429,20.844l-0.86-1.501l-3.866-5.375v3.654
				l3.866,5.585l1.29,1.934l1.781,10.513l-3.071-4.712v3.867l3.438,5.588v-2.579v2.579l0.643,0.648l0.217,0.424l2.365,4.516v-2.366
				l-2.151-1.931l2.151,1.931v-2.792l-0.431-0.43l-2.151-12.247v12.247v-12.247l-0.212-0.643h0.212v-2.796l-0.643-0.429v13.535
				V181.39l-0.215-0.217l-0.215-1.721l0.215-20.195l0.215,0.214v-3.006v-0.213l0.643-1.935l2.582-11.392l1.288-4.937l0.431-2.585
				c0.428,0.22,0.643,0.648,0.857,0.862v-3.223v-0.219l1.077-2.144l6.445-14.4l1.719-4.081v-6.017
				c-0.644-0.643-1.29-1.502-1.719-2.15V107.26z M165.237,107.26l3.435,6.877c-1.288,0.643-2.363,1.285-3.435,1.714
				c-0.647,0.43-1.29,0.647-1.935,0.859c-0.215,0.218-0.429,0.218-0.644,0.431c-1.504,0.647-3.224,1.506-4.942,2.153
				c-0.646,0.213-1.29,0.43-1.935,0.86v2.144c0.646-0.212,1.29-0.43,1.935-0.643c1.719-0.647,3.438-1.501,4.942-2.148
				c0.215-0.213,0.429-0.213,0.644-0.429c0.646-0.213,1.288-0.431,1.935-0.86c1.504-0.643,2.794-1.29,4.295-2.148l0.86,1.719v-4.728
				l-5.155-10.742V107.26z M163.302,103.604l1.935,3.656v-4.941l-1.935-3.656V103.604z M98.194,100.6
				c0.433,0,1.077,0.213,1.722,0.213v-2.15c-0.646,0-1.29-0.216-1.722-0.216V100.6z M95.618,100.384
				c0.86,0.216,1.719,0.216,2.576,0.216v-2.153c-0.857,0-1.716,0-2.576-0.213V100.384z M92.395,100.17
				c1.075,0.213,2.148,0.213,3.223,0.213v-2.15c-1.075,0-2.148,0-3.223-0.213V100.17z M162.658,102.103l0.644,1.501v-4.941
				l-0.644-1.501V102.103z M82.941,98.876h1.072v-2.144c-0.429,0-0.643,0-1.072-0.218V98.876z M81.866,98.663
				c0.431,0,0.646,0,1.075,0.213v-2.362c-0.43,0-0.644,0-1.075-0.213V98.663z M76.279,97.375c1.719,0.43,3.653,0.859,5.586,1.288
				v-2.361c-1.934-0.216-3.867-0.859-5.586-1.29V97.375z M126.128,112.848l1.075,10.098v-18.481l-0.644-5.154h0.644v-2.366
				c-0.215,0.218-0.644,0.218-0.859,0.218l-0.216-2.58V112.848z M185.003,97.162l2.794,3.438v-3.225l-2.794-3.651V97.162z
				 M66.18,93.936c0.646,0.218,1.29,0.43,1.935,0.86v-2.361c-0.646-0.218-1.29-0.431-1.935-0.86V93.936z M63.386,92.864
				c0.86,0.213,1.721,0.643,2.794,1.072v-2.361c-1.073-0.43-1.934-0.647-2.794-1.072V92.864z M62.957,92.646
				c0.215,0,0.215,0,0.429,0.218v-2.362c-0.214-0.217-0.214-0.217-0.429-0.217V92.646z M142.03,93.724v0.211
				c-0.431,0-0.646,0.218-1.075,0.218c-0.646,0.212-1.504,0.429-2.15,0.643c-0.644,0-1.074,0.216-1.504,0.216
				c-0.429,0.213-0.644,0.213-0.857,0.213c-1.076,0.218-1.935,0.43-3.01,0.647c-0.643,0.213-1.29,0.213-2.147,0.43
				c-0.646,0.213-1.507,0.213-2.15,0.431c-0.644,0-1.288,0.212-1.934,0.212v2.366c0.646-0.216,1.29-0.216,1.934-0.434
				c0.643,0,1.504-0.213,2.15-0.429c0.857,0,1.504-0.213,2.147-0.427c1.075-0.216,1.934-0.429,3.01-0.646h0.857
				c0.431-0.213,0.86-0.431,1.504-0.431c0.646-0.212,1.504-0.43,2.15-0.643c0.429,0,0.644-0.216,1.075-0.216
				c0.215,0,0.429-0.213,0.859-0.213l9.024,24.282v-6.235l-7.09-18.694c2.363-0.643,4.726-1.29,7.09-2.148v-2.362
				c-2.576,1.072-5.158,1.719-7.734,2.578l-2.148-5.586V93.724z M179.63,90.715l5.373,6.447v-3.438l-5.373-6.235V90.715z
				 M56.081,88.995c0.215,0.213,0.644,0.213,0.859,0.431V87.06c-0.215-0.213-0.644-0.431-0.859-0.643V88.995z M54.36,87.918
				c0.431,0.218,1.078,0.647,1.721,1.077v-2.578c-0.643-0.431-1.29-0.86-1.721-1.073V87.918z M140.956,91.145l1.075,2.58v-6.017
				l-1.075-2.792V91.145z M23.851,92.864l1.288,3.222v-5.801c-0.646-1.937-1.075-4.085-1.288-6.229V92.864z M155.781,87.918
				l0.646,1.077c-0.215,0.213-0.431,0.213-0.646,0.213c-1.29,0.647-2.578,1.077-3.868,1.507v2.362
				c1.29-0.431,2.578-0.86,3.868-1.503c0.431-0.218,1.075-0.43,1.504-0.647l0.431,1.076V87.06l-1.935-3.864V87.918z M195.963,82.335
				l1.503,1.29v-2.796l-1.503-1.29V82.335z M138.806,84.915l2.15,6.23v-6.23l-2.15-6.235V84.915z M194.89,81.259l1.073,1.076V79.54
				l-1.073-1.072V81.259z M193.382,79.969l1.507,1.29v-2.791l-1.507-1.507V79.969z M151.913,79.757l3.868,8.161v-4.723l-3.868-8.166
				V79.757z M137.301,80.829l1.504,4.085V78.68l-1.504-4.081V80.829z M123.551,92.217l0.644,5.158
				c-0.214,0.216-0.429,0.216-0.644,0.216h-0.86c-0.644,0.213-1.075,0.213-1.504,0.213c-0.215,0-0.645,0-0.859,0.216h-1.718
				c-1.076,0.213-1.934,0.213-3.011,0.427h-2.791c-0.215,0-0.644,0.216-0.86,0.216h-0.429h-1.29h-0.859h-0.431v2.15h0.431h0.859
				h1.29h0.429c0.216,0,0.646-0.213,0.86-0.213h2.791c1.078-0.216,1.935-0.216,3.011-0.43h1.718c0,0,0.214,0,0.214-0.217h0.645
				c0.429,0,0.86,0,1.504-0.212h0.86c0.43,0,0.644,0,0.859-0.218l1.719,13.324V94.583l-2.578-20.842V92.217z M188.871,76.102
				l4.512,3.868V76.96l-4.512-3.651V76.102z M136.444,78.468l0.857,2.361v-6.23l-0.857-2.362V78.468z M187.797,75.242l1.073,0.86
				V73.31l-1.073-1.072V75.242z M165.237,73.098l5.155,6.442v-3.222l-5.155-6.664V73.098z M163.302,70.943l1.935,2.154v-3.444
				l-1.935-1.931V70.943z M102.277,69.225c0.862,0,1.934,0.217,2.794,0.217v-2.15c-0.86,0-1.932-0.211-2.794-0.211V69.225z
				 M162.658,70.084l0.644,0.859v-3.22l-0.644-0.86V70.084z M122.69,83.838l0.86,8.379V73.74l-0.646-5.37h0.646v-2.15h-0.86v-0.647
				V83.838z M90.461,67.723c0.644,0,1.288,0.216,1.934,0.216v-2.148c-0.646,0-1.29-0.218-1.934-0.43V67.723z M179.63,68.152
				l4.728,3.869c-1.504,1.289-3.005,2.578-4.728,3.868c-0.859,0.86-1.931,1.719-3.22,2.361c-0.86,0.647-1.721,1.29-2.579,1.937
				l-2.15-2.579l-1.289-1.29v3.222l1.289,1.29l0.216,0.43c0,0.218-0.216,0.218-0.216,0.218c-0.43,0.213-0.859,0.429-1.289,0.643
				c-1.72,1.076-3.439,1.937-5.155,3.008c-0.647,0.216-1.29,0.647-1.935,0.859c-0.215,0-0.429,0.213-0.644,0.431
				c-1.504,0.643-2.794,1.29-4.298,1.931l-0.644-1.288v4.944l4.942,10.099v-4.94l-3.438-6.877c1.288-0.647,2.363-1.077,3.438-1.506
				c0.215-0.213,0.429-0.431,0.644-0.431c0.646-0.211,1.288-0.641,1.935-0.858c1.716-0.86,3.435-1.932,5.155-2.791
				c0.43-0.213,0.859-0.431,1.289-0.643c0.431-0.431,1.075-0.647,1.72-1.078l6.229,7.738v-3.226l-4.51-5.583
				c0.858-0.647,1.719-1.29,2.579-1.937c0.641-0.43,1.288-0.859,1.931-1.29c1.935-1.501,3.654-2.791,5.373-4.297v-4.512l-5.373-4.51
				V68.152z M82.941,65.573c0.429,0.218,0.643,0.218,1.072,0.429v-2.361c-0.429,0-0.643-0.216-1.072-0.216V65.573z M195.963,66.22
				l1.503,1.072v-2.794l-1.503-1.073V66.22z M81.866,65.361c0.431,0,0.646,0.212,1.075,0.212v-2.148
				c-0.43-0.213-0.644-0.213-1.075-0.431V65.361z M157.716,64.284l4.942,5.801v-3.222l-4.942-6.014V64.284z M171.681,61.493
				l7.949,6.66v-2.791l-7.949-6.663V61.493z M155.781,61.922l1.935,2.362v-3.435l-1.935-2.365V61.922z M188.871,61.063l3.225,2.148
				c-0.86,1.287-1.936,2.791-3.225,4.081c-0.214,0.431-0.644,0.86-1.073,1.29l-1.935,1.932l-0.859-0.643v4.512l0.859-0.856
				l1.935,1.715v-3.004l-0.215-0.216c0-0.217,0.215-0.217,0.215-0.431c0.429-0.429,0.859-0.647,1.073-1.077
				c1.721-1.714,3.225-3.433,4.512-5.152v-4.083l-4.512-2.794V61.063z M170.393,60.632l1.289,0.86v-2.794l-1.289-0.859V60.632z
				 M187.797,60.202l1.073,0.862v-2.58l-1.073-0.644V60.202z M185.003,58.27l2.794,1.932V57.84l-2.794-2.15V58.27z M140.956,59.128
				l1.075,1.504v-3.867l-1.075-1.504V59.128z M121.187,71.59l1.504,12.248V65.573l-1.504-10.742V71.59z M165.237,56.12l5.155,4.513
				V57.84l-5.155-4.513V56.12z M179.63,54.832l5.373,3.438v-2.58l-5.373-3.223V54.832z M129.137,58.27l2.15,6.445
				c-0.646,0.216-1.507,0.216-2.15,0.429c-0.644,0.218-1.288,0.218-1.934,0.43c-0.43,0-0.859,0.218-1.075,0.218
				c-0.858,0.211-1.719,0.211-2.578,0.429v2.15c0.859-0.218,1.719-0.218,2.578-0.431c0.216,0,0.646-0.216,1.075-0.216
				c0.646,0,1.29-0.213,1.934-0.431c0.643,0,1.504-0.211,2.15-0.429c0.215,0,0.429,0,0.857-0.213l1.29,4.082v-6.448l-2.147-6.014
				v6.445V58.27l-2.15-6.445V58.27z M138.806,55.69l2.15,3.438v-3.867l-2.15-3.437V55.69z M194.89,52.682l1.073,0.646v-2.579
				l-1.073-0.646V52.682z M137.301,53.542l1.504,2.148v-3.866l-1.504-2.151V53.542z M193.382,51.824l1.507,0.857v-2.579
				l-1.507-0.859V51.824z M136.444,52.252l0.857,1.29v-3.869l-0.857-1.29V52.252z M63.386,52.467c0,0.215,0.216,0.429,0.431,0.644
				l-0.431,0.216l-0.429,0.429l-1.719,1.719l-4.298,4.083l-0.859,0.858l-1.721,1.718l-6.014,6.017l-5.373,5.157
				c-0.429-0.43-0.644-0.859-0.859-1.506c-0.646-1.072-1.075-2.362-1.504-3.434v5.157c0.216,0.643,0.429,1.072,0.858,1.503
				l-0.858,1.072l-1.29,1.719l-1.288,1.506l-1.934,2.579l-1.29,1.719l-0.429,0.431l-1.719,2.361l-6.016,7.948
				c-0.216-0.43-0.429-1.072-0.429-1.501c-0.43-0.86-0.86-1.719-1.077-2.579v5.801c0,0.216,0,0.216,0.216,0.216l-0.216,0.213
				l-1.288,2.796l-1.288,2.361l-2.582,5.158l-0.643,0.859l-3.438,6.877l-1.29,2.362c-1.074-2.362-1.934-4.728-2.577-7.089v6.66
				c0.428,1.077,0.857,1.937,1.287,3.009l-1.287,4.728l-4.513,15.04l-1.934-5.587v6.662l1.072,2.793l-1.072,11.604v12.248
				l4.082,15.466l0.213,0.22l2.151,3.438v-4.08l-0.217-0.436l-3.224-11.818l3.441,4.945v-3.654l-4.942-7.302l1.501-17.836
				l3.441,4.51v-3.438l-3.223-4.297l3.223-10.96l2.791-9.455c0.216,0.647,0.646,1.29,1.075,1.937v-4.511l-0.215-0.216l0.215-0.213
				l3.438-7.094l0.643-0.643l2.582-5.375l1.288-2.15l1.288-2.791l1.077-1.932l0.213-0.647c1.719,3.009,3.653,6.018,6.232,8.597
				v-3.227c-1.934-2.361-3.654-4.939-4.942-7.519l4.942-6.446l1.719-2.361l0.429-0.431l1.29-1.719l1.934-2.791l1.288-1.507
				l1.29-1.719l1.504-1.932l0.43-0.647c1.719,2.15,3.652,4.298,5.802,6.235v-3.009c-1.719-1.507-3.008-3.226-4.298-4.945
				l4.298-4.081l6.014-6.018l1.721-1.719l0.859-0.86l4.298-4.081l1.719-1.719l0.429-0.43l1.721-1.72
				c0.214,0.431,0.644,0.86,1.073,1.29v-4.728l-0.859,0.429c-0.86-1.073-1.504-2.363-1.935-3.652V52.467z M120.328,63.854
				l0.214,2.795h-0.214c-0.646,0-1.075,0-1.718,0.213c-1.076,0-1.934,0-3.011,0.218c-0.857,0-1.716,0-2.791,0.211h-0.86h-0.429v2.15
				h0.429h0.86c1.075-0.217,1.934-0.217,2.791-0.217c1.078-0.212,1.935-0.212,3.011-0.212h0.213
				c0.429-0.213,0.859-0.213,1.504-0.213c0.214,0,0.214,0,0.429-0.218l0.43,3.009V54.832l-0.859-7.091V63.854z M157.716,50.317
				l2.578,1.721c-0.859,0.644-1.504,1.29-2.363,1.719h-0.215c-0.646,0.429-1.29,0.859-1.935,1.29c-0.644,0.43-1.29,0.859-1.934,1.29
				l-1.934-2.15v3.009v0.215c-2.364,1.075-4.728,2.15-7.305,3.223l-2.578-3.867v3.867l0.644,0.646
				c-0.215,0.215-0.429,0.215-0.644,0.215c-0.431,0.213-0.646,0.429-1.075,0.429c-0.646,0.213-1.504,0.431-2.15,0.86
				c-0.644,0-1.074,0.212-1.504,0.429c-0.429,0-0.644,0-0.857,0.213c-1.076,0.216-1.935,0.429-3.01,0.644v6.663l3.01,7.736v-6.23
				l-2.363-6.017c0.857-0.218,1.504-0.429,2.363-0.647c0.213,0,0.428-0.212,0.857-0.212c0.431-0.218,0.86-0.218,1.504-0.431
				c0.646-0.216,1.504-0.433,2.15-0.647c0.429-0.215,0.644-0.215,1.075-0.43c0.644-0.213,1.073-0.429,1.719-0.643l8.164,16.546
				V75.03l-6.23-12.465c2.15-0.858,4.083-1.932,6.23-2.794c0.43-0.211,0.859-0.643,1.504-0.857l2.363,3.008v-3.438l-0.429-0.644
				c0.214,0,0.214-0.216,0.429-0.216c0.646-0.43,1.29-0.859,1.935-1.289c0.429-0.216,0.859-0.431,1.288-0.86
				c1.075-0.644,2.15-1.29,3.009-1.934l0.646,0.429v-3.869c-0.215,0.214-0.433,0.431-0.646,0.646l-4.297-3.007V50.317z
				 M171.681,49.673l7.949,5.159v-2.365l-7.949-5.373V49.673z M188.871,49.458l4.512,2.366v-2.581l-4.512-2.365V49.458z
				 M127.204,52.896l1.934,5.374v-6.445l-1.934-5.375V52.896z M187.797,48.813l1.073,0.646v-2.579l-1.073-0.429V48.813z
				 M155.781,49.03l1.935,1.287v-2.576l-1.935-1.504V49.03z M170.393,48.813l1.289,0.86v-2.579l-1.289-0.857V48.813z
				 M185.003,47.312l2.794,1.501V46.45l-2.794-1.719V47.312z M142.03,47.524l9.883,9.67v-3.009l-9.883-9.668V47.524z
				 M133.434,47.954l3.01,4.298v-3.869l-3.01-4.295V47.954z M140.956,46.45l1.075,1.075v-3.007l-1.075-1.075V46.45z M151.913,46.021
				l3.868,3.01v-2.794l-3.868-2.794V46.021z M162.658,44.518l0.644,0.429v-2.363l-0.644-0.43V44.518z M179.63,44.303l5.373,3.009
				V44.73l-5.373-2.792V44.303z M138.806,44.303l2.15,2.147v-3.007l-2.15-2.363V44.303z M194.89,42.798l1.073,0.43v-2.363
				l-1.073-0.431V42.798z M193.382,42.154l1.507,0.644v-2.364l-1.507-0.644V42.154z M137.301,42.584l1.504,1.719V41.08l-1.504-1.504
				V42.584z M157.716,41.938l4.942,2.579v-2.363l-4.942-2.579V41.938z M155.781,41.08l1.935,0.859v-2.363l-1.935-0.86V41.08z
				 M123.551,44.303c0.215,0,0.43,0,0.644-0.215l1.934,5.585v-8.164c-0.214,0-0.429,0-0.858,0.215l-1.719-3.438V44.303z
				 M188.871,40.434l4.512,1.72V39.79l-4.512-1.719V40.434z M187.797,40.004l1.073,0.43v-2.363l-1.073-0.429V40.004z
				 M151.913,39.146l3.868,1.934v-2.365l-3.868-2.148V39.146z M118.61,51.177l1.718,12.677V47.741l-0.431-2.794h0.431v-2.148h-0.857
				l-0.86-6.446V51.177z M122.69,41.08l0.646,1.075c-0.216,0-0.431,0.215-0.646,0.215c-0.429,0-1.075,0.215-1.504,0.215
				c-0.215,0-0.645,0.214-0.859,0.214v2.148c0.214,0,0.644-0.216,0.859-0.216c0.429,0,1.075-0.213,1.504-0.213
				c0.215,0,0.646-0.215,0.86-0.215v-6.017l-0.86-1.934V41.08z M127.204,39.36l1.075,1.29c-0.215,0.215-0.646,0.43-1.075,0.43
				c-0.43,0.214-0.859,0.214-1.075,0.429v2.15v6.014l1.075,3.223V46.45l-1.075-2.791c0.431,0,0.646-0.216,1.075-0.216l1.934-0.644
				v-4.513l-1.934-1.934V39.36z M142.03,38.93l9.883,7.091v-2.578l-9.883-7.09V38.93z M185.003,38.715l2.794,1.29v-2.363
				l-2.794-1.29V38.715z M165.237,38.071l5.155,1.719v-2.365l-5.155-1.719V38.071z M126.128,38.286l1.075,1.075v-3.008l-1.075-1.29
				V38.286z M131.287,37.642l1.717,1.288c-0.643,0.216-1.073,0.431-1.717,0.646c-0.215,0.215-0.43,0.215-0.86,0.429l-1.29-1.719
				v4.513c0.216-0.214,0.431-0.214,0.643-0.214l1.507,2.146l2.147,3.224v-3.866l-1.503-2.364c0.431-0.215,1.073-0.43,1.503-0.644
				v-4.513l-2.147-1.504V37.642z M163.302,37.425l1.935,0.646v-2.364l-1.935-0.644V37.425z M162.658,37.21l0.644,0.215v-2.363
				l-0.644-0.215V37.21z M179.63,36.566l5.373,2.148v-2.363l-5.373-2.15V36.566z M121.187,38.286l1.504,2.794v-4.728l-1.504-2.792
				V38.286z M129.137,36.136l2.15,1.506v-2.579l-2.15-1.503V36.136z M136.444,35.707l0.857,0.214v-2.148l-0.857-0.429V35.707z
				 M157.716,35.492l4.942,1.719v-2.363l-4.942-1.504V35.492z M193.382,35.063l1.507,0.644v-2.363l-1.507-0.431V35.063z
				 M155.781,34.848l1.935,0.644v-2.148l-1.935-0.646V34.848z M127.204,34.848l1.934,1.288V33.56l-1.934-1.504V34.848z
				 M133.434,34.42l3.01,1.287v-2.363l-3.01-1.288V34.42z M126.128,33.99l1.075,0.857v-2.792l-1.075-0.647V33.99z M151.913,33.56
				l3.868,1.288v-2.15l-3.868-1.29V33.56z M188.871,33.56l4.512,1.503v-2.15l-4.512-1.716V33.56z M138.806,33.13l1.935,0.643
				c-0.431,0.218-0.86,0.647-1.075,0.859l-0.86-0.211l-1.504-0.647v2.148l0.216,0.215l-0.216,0.216v0.214
				c-0.429,0-0.644,0.215-0.857,0.43c-0.429,0.214-0.859,0.429-1.288,0.646l-1.722-1.075v4.513c0.647-0.215,1.075-0.646,1.504-0.86
				l1.506,1.504l0.857,0.86v-3.009l-0.429-0.429c0,0,0.214,0,0.429-0.216c0.431-0.215,0.86-0.43,1.29-0.859h0.215
				c0.216-0.214,0.646-0.646,0.86-0.86l1.29,1.075v-6.66l-2.15-0.647V33.13z M187.797,33.13l1.073,0.43v-2.363l-1.073-0.431V33.13z
				 M137.301,32.698l1.504,0.432v-2.151l-1.504-0.429V32.698z M136.444,32.483l0.857,0.215v-2.148l-0.857-0.213V32.483z
				 M165.237,32.269l5.155,1.075v-2.147l-5.155-1.29V32.269z M185.003,32.055l2.794,1.075v-2.364l-2.794-1.074V32.055z
				 M133.434,31.626l3.01,0.857v-2.147l-3.01-0.858V31.626z M162.658,29.478v2.148l0.644,0.213l1.935,0.43v-2.362l-1.935-0.429
				H162.658z M157.716,30.336l4.942,1.29v-2.148l-4.942-1.292V30.336z M138.806,30.119l2.15,0.431v-2.147l-2.15-0.429V30.119z
				 M179.63,30.119l5.373,1.937v-2.363l-5.373-1.719V30.119z M136.444,27.755v2.151h0.857l1.504,0.212v-2.146l-1.504-0.218H136.444z
				 M155.781,29.907l1.935,0.429v-2.151l-1.935-0.43V29.907z M201.333,31.839l1.29,0.43c1.504,1.722,2.58,3.652,3.439,5.373
				l-4.729-1.721l-2.363-1.073c-0.431-1.075-0.86-2.365-1.504-3.439v5.588c0.429,1.504,0.858,3.008,1.073,4.728v0.215l-1.073-0.43
				l-1.503-0.644v2.363l1.503,0.646l1.073,0.429c0,2.576-0.215,4.941-0.857,7.304h-0.216l-1.503-0.858v2.579l1.072,0.429
				c-0.211,0.859-0.641,1.719-1.072,2.579c-0.216,0.644-0.644,1.504-1.073,2.363c-0.431,0.86-1.078,1.719-1.507,2.579v4.083
				c0.217-0.431,0.429-0.647,0.429-0.863l1.078,0.646l1.073,1.077v-2.795l-0.859-0.86c0.43-0.429,0.643-1.072,0.859-1.501
				c0.643-0.862,1.072-1.936,1.503-2.794c2.363-4.728,3.438-9.668,3.223-14.611c0-0.86,0-1.504-0.215-2.15
				c0-1.29-0.214-2.794-0.646-4.083l1.504,0.646l6.448,2.579c1.719,3.868,3.005,7.951,3.652,12.246c0,1.29,0.213,2.58,0.213,3.654
				c0.216,5.803-0.86,11.602-3.007,17.19l-7.307-6.017l-3.867-3.225v2.794l3.867,3.222l6.448,5.157
				c-1.504,3.226-3.009,6.448-5.159,9.673l-1.29-1.076l-3.867-3.438v2.796l3.867,3.435c-1.073,1.719-2.363,3.442-3.867,4.944
				c-0.431,0.643-0.86,1.074-1.503,1.721c-0.216,0.429-0.644,0.858-1.073,1.288c-0.431,0.431-1.078,1.073-1.507,1.502
				c-1.072,1.077-2.362,2.148-3.437,3.227l-1.075-1.078l-1.073-1.288v3.225l0.429,0.643c0,0-0.214,0.217-0.429,0.217
				c-0.646,0.643-1.29,1.29-2.15,1.933c-0.212,0.211-0.429,0.211-0.644,0.429c-1.719,1.29-3.438,2.579-5.373,3.867
				c-2.576,1.721-5.156,3.439-7.949,4.729c-0.43,0.212-0.859,0.43-1.289,0.643v4.728l1.289,1.936v-4.301l-0.215-0.426h0.215
				c2.793-1.506,5.373-3.009,7.949-4.728c1.935-1.29,3.654-2.366,5.373-3.655c0.644-0.643,1.29-1.072,1.934-1.719
				c0.43-0.213,0.646-0.429,0.86-0.643c0.429-0.218,0.859-0.647,1.073-0.858c1.504-1.29,3.01-2.58,4.512-3.869
				c0.429-0.429,1.076-1.076,1.507-1.503c0.429-0.429,0.857-0.858,1.073-1.288c0.643-0.431,1.072-0.86,1.503-1.507
				c1.504-1.501,2.794-3.008,3.867-4.51C209.5,80.187,214.01,68.37,213.798,56.55c0-1.29-0.218-2.579-0.431-3.869
				c-1.073-9.454-5.375-17.834-12.034-25.14V31.839z M151.913,29.046l3.868,0.86v-2.151l-3.868-0.857V29.046z M194.89,30.979
				c0.429,0.86,0.857,1.504,1.073,2.365v-6.23l-1.073-0.644V30.979z M193.382,28.614c0.429,0.863,1.076,1.722,1.507,2.364v-4.51
				l-0.646-0.216c-0.433-0.429-0.645-0.858-0.862-1.073V28.614z M165.237,26.898l5.155,0.644v-2.148l-5.155-0.646V26.898z
				 M163.302,26.684l1.935,0.215v-2.15l-1.935-0.215V26.684z M162.658,26.469l0.644,0.215v-2.15l-0.644-0.215V26.469z
				 M185.003,26.038l2.794,0.86v-2.365l-2.794-0.644V26.038z M197.466,26.684c0.644,0.644,1.29,1.072,1.72,1.719l-1.72-0.647
				l-1.503-0.643v6.23c0.213,0.216,0.213,0.429,0.431,0.647l-0.431-0.218l-1.073-0.429v2.363l1.073,0.429l1.29,0.431
				c0.213,0.215,0.213,0.215,0.213,0.43v-5.588c-0.213-0.643-0.643-1.29-1.072-1.931l1.072,0.429l3.867,1.932v-4.297
				c-1.073-1.29-2.363-2.578-3.867-3.652V26.684z M157.716,25.823l4.942,0.646v-2.15l-4.942-0.644V25.823z M95.618,27.542h2.576
				v-3.867l-2.576-0.215V27.542z M155.781,25.608l1.935,0.215v-2.148l-1.935-0.215V25.608z M201.333,26.898
				c11.388,9.454,18.909,21.914,20.844,36.313c0.214,1.719,0.429,3.651,0.429,5.588c0.429,17.83-7.521,35.452-21.273,50.065
				c-1.073,1.501-2.578,2.791-3.867,4.081c-0.431,0.429-0.86,0.86-1.503,1.29c-0.216,0.429-0.644,0.86-1.073,1.072
				c-0.431,0.431-1.078,1.077-1.507,1.507h-0.213c-1.288,1.29-2.794,2.362-4.298,3.651c-0.214,0.217-0.644,0.43-1.073,0.643
				c-0.86,0.859-1.935,1.508-2.794,2.366v2.579c0.859-0.648,1.934-1.507,2.794-2.149c0.429-0.216,0.859-0.43,1.073-0.859
				c1.504-1.077,3.01-2.362,4.512-3.438c0.429-0.431,0.862-0.86,1.291-1.291h0.216c0.429-0.429,0.857-0.859,1.073-1.072
				c0.643-0.429,1.072-0.86,1.503-1.289c1.29-1.29,2.794-2.58,3.867-3.868c15.042-15.474,24.064-34.168,23.423-53.287
				c0-1.937-0.216-4.085-0.431-6.017c-1.29-9.886-5.372-19.124-11.387-26.861l7.304,6.018l124.411,129.137l-143.32,57.371
				l-3.867,1.501l-1.503,0.648l-1.073,0.43l-1.507,0.643l-4.512,1.721l-1.073,0.429l-2.794,1.075l-5.373,2.149l-7.949,3.223
				l-1.289,0.429l-5.155,2.15l-1.935,0.643l-0.644,0.432l-4.942,1.934l-1.935,0.643l-3.868,1.718l-9.883,3.87l-1.075,0.43
				l-2.15,0.858l-1.504,0.646l-0.857,0.427l-3.01,1.078l-2.147,0.858l-1.934,0.859l-0.216-0.214l-1.934-0.429v2.149l1.606,0.604
				h1.075l1.402-0.604l2.147-0.858l3.01-1.291l0.857-0.217l1.504-0.643l2.15-0.858l1.075-0.436l9.883-3.864l3.868-1.718l1.935-0.648
				l4.942-2.146l0.644-0.214l1.935-0.648l5.155-2.144l1.289-0.436l7.949-3.219l5.373-2.149l2.794-1.078l1.073-0.424l4.512-1.937
				l1.507-0.643l1.073-0.43l1.503-0.432l3.867-1.718l145.683-58.232l1.499-0.643v-0.009l-1.069-1.066L221.748,40.219h-0.216
				L201.333,23.46V26.898z M92.395,25.394l2.148,0.214h-2.148l-1.934,0.215v2.15l1.934-0.218l3.223-0.213V23.46l-3.223-0.216V25.394
				z M151.913,25.179l3.868,0.429V23.46l-3.868-0.431V25.179z M179.63,24.964l5.373,1.074V23.89l-5.373-1.29V24.964z M95.618,22.814
				l2.576,0.43v-2.148l-2.576-0.429V22.814z M188.871,23.675c0.646,0.43,1.075,1.074,1.721,1.504l-1.721-0.431l-1.073-0.215v2.365
				l1.073,0.214l3.869,0.86c0.213,0.212,0.429,0.429,0.643,0.641v-3.435c-1.287-1.504-2.791-3.009-4.512-4.513V23.675z
				 M171.681,24.534c0,0.215,0.216,0.646,0.431,1.075h-0.431l-1.289-0.214v2.148l1.289,0.213h1.075
				c0.215,0.859,0.215,1.506,0.429,2.151v1.072v0.86l-1.504-0.431l-1.289-0.212v2.147l1.289,0.429l1.29,0.218
				c-0.215,1.287-0.43,2.791-1.074,4.081l-0.216-0.214l-1.289-0.431v2.365l0.645,0.214c-0.215,0.43-0.215,0.86-0.645,1.075
				c-0.646,1.29-1.504,2.579-2.361,3.651l-2.794-1.288l-1.935-0.858v2.363l1.935,0.86l1.287,0.643
				c-0.429,0.429-0.857,1.075-1.287,1.504c-0.647,0.647-1.29,1.076-1.935,1.719c-0.215,0.215-0.429,0.43-0.644,0.43v3.869
				l0.644,0.644l1.935,1.504v-2.792l-1.507-1.29c0.429-0.213,0.86-0.643,1.507-1.075c1.072-1.075,2.147-2.361,3.223-3.438
				l1.932,1.288v-2.576l-0.431-0.429c0.215-0.218,0.431-0.429,0.431-0.647c0.43-0.643,0.859-1.072,1.289-1.718
				c0.431-0.858,1.075-1.719,1.504-2.578l6.445,3.438v-2.364l-5.585-3.009c0.429-1.504,0.86-2.794,1.075-4.298l4.51,1.935v-2.364
				l-4.295-1.719v-1.504v-1.287c0-0.431-0.214-0.86-0.214-1.078l4.51,1.504v-2.146l-5.156-1.935
				c-0.214-0.859-0.644-1.719-1.073-2.578l6.229,1.504V22.6l-7.733-1.719c0-0.214-0.216-0.431-0.216-0.646V24.534z M155.781,20.021
				v2.15h1.935l4.942,0.215v-2.15l-4.942-0.215H155.781z M197.466,23.675c1.29,1.074,2.794,2.148,3.867,3.224V23.46l-3.867-3.439
				V23.675z M151.913,21.955l3.868,0.216v-2.15l-3.868-0.211V21.955z M187.797,22.6c0.429,0.429,0.859,0.644,1.073,1.075v-3.008
				c-0.214-0.216-0.644-0.646-1.073-0.857V22.6z M65.321,19.377l0.859-0.215L65.321,19.377z M195.963,25.394
				c0.643,0.429,1.072,0.858,1.503,1.29V23.89c-0.213-0.215-0.431-0.43-0.431-0.43s0.218,0.215,0.431,0.215v-3.654l-0.431-0.211
				l-0.211-0.218l-0.86-0.429V25.394z M66.18,19.162l0.431-0.216L66.18,19.162z M99.916,18.946v2.15l1.501,0.644l-1.501-0.215
				v-0.214v0.214v-0.214l-1.722-0.215v2.148l1.722,0.431h-1.722v3.867l1.722-0.214v0.214l-1.722,0.213l-2.576,0.43l-3.223,0.647
				l-1.934,0.429v2.147l1.934-0.212l3.223-0.86l2.576-0.429l1.722-0.215l-1.722,0.427l-2.576,0.86l-3.223,1.29l-1.934,0.644v2.15
				l1.934-0.643l3.223-1.077l-3.223,1.504l-1.719,0.859c-0.206-0.208-0.214-0.417-0.214-0.43V38.5c0.214,0.43,0.644,0.86,1.073,1.29
				l-1.073,1.075l-3.437,2.578l-3.012,2.794l-1.072,0.857l-1.075,0.86l-5.586,4.728l-4.943,4.083l-0.212,0.214l-0.218,0.215
				c-1.075-0.859-1.934-1.504-2.791-2.363v2.792c0.427,0.431,0.857,0.86,1.287,1.075l-1.287,1.503l-1.935,2.363l-2.794,3.009
				l-0.429,0.429l-1.719,1.937L56.94,72.88l-0.859,0.86l-1.721,2.148l-4.725,5.158l-0.214,0.212
				c-0.431-0.212-0.86-0.643-1.075-1.072v3.009v0.213l-6.232,10.527l-1.504,2.797l-1.29,2.144l-1.288,2.153l-1.934,3.435
				l-1.29,2.148c-0.215-0.212-0.215-0.212-0.429-0.43v6.017l0.429-0.429l0.646-1.503c0.215,0.213,0.429,0.43,0.644,0.643
				c0.646,0.647,1.288,1.077,1.934,1.719v-2.791c-0.429-0.429-1.076-1.076-1.719-1.507l1.719-3.008l1.288-2.148l1.29-2.146
				l1.504-2.795l6.232-10.527l1.719-3.009c1.29,1.076,2.579,2.148,4.295,3.22v-2.575c-1.287-0.859-2.363-1.719-3.22-2.578
				l0.215-0.431l3.005-3.225l1.721-2.15l0.859-0.859l4.298-4.94l1.719-1.937l0.429-0.425l2.794-3.008l1.935-2.366l3.009-3.437
				l0.212,0.213c1.507,1.076,3.223,1.934,4.943,2.792v-2.362c-1.29-0.644-2.579-1.504-3.654-2.148l3.654-3.008l5.586-4.728
				l1.075-0.86l1.072-0.857l3.012-2.794l3.437-2.578l1.934-1.72v-4.513c-0.215,0-0.215,0-0.215-0.215h0.215l3.223-1.504l2.576-1.075
				l1.722-0.859l2.361-1.075l-2.361,1.504v0.218l-1.722,1.072l-2.576,1.504L93.469,38.5c-0.431-0.429-0.86-0.644-1.075-1.075v4.513
				l0.858-0.859h0.216c0.429,0.214,1.074,0.429,1.504,0.859l-2.579,3.008l-1.934,2.365l-3.437,4.083l-3.012,3.651l-1.072,1.29
				l-1.075,1.289l-3.438,4.082c-0.429-0.213-0.644-0.428-1.075-0.643c-0.43-0.215-0.644-0.431-1.074-0.431v2.362h0.215
				c0.215,0.217,0.429,0.217,0.644,0.431l-0.859,1.506l-4.943,7.52l-3.221,5.37l-1.935,3.008l-2.794,4.515l-0.429,0.431
				l-1.719,2.791l-0.429,0.643c-1.29-0.643-2.576-1.501-3.869-2.148v2.366c0.861,0.643,1.934,1.076,2.793,1.719l-2.793,5.588
				l-0.859,1.931l-1.721,3.439l-6.014,11.817l-1.29,2.579c-1.719-1.076-3.437-2.361-4.942-3.438v2.578
				c1.29,1.072,2.578,1.937,4.082,2.797l-4.082,12.672l-1.504,4.727l-1.29,4.087l-1.288,3.65v0.43
				c-0.646-0.43-1.288-0.858-1.934-1.288v2.579c0.43,0.216,0.857,0.646,1.288,0.858l-1.288,6.447l-1.29,6.659l-0.429,1.508
				l-1.504,7.947l-0.215-0.216l-6.445-5.801v2.795l6.23,5.802l-0.431,20.624l-5.799-4.938l-1.077-0.646v2.796l1.077,0.643
				l6.016,5.155l0.429,2.366l1.719,9.452v-12.891l-0.215-0.216l-0.215-0.43l0.43-16.334l0.214-4.293h0.215v-2.366v2.366l1.29,0.643
				v-2.36l-1.29-0.648l1.29-6.44l1.934-10.533l1.288-5.802c0.43,0.214,0.859,0.43,1.29,0.649v-2.366
				c-0.213-0.214-0.431-0.214-0.431-0.43H39.75l0.86-2.579l1.504-4.724l6.018-18.482l0.214,0.216h0.215
				c1.719,1.073,3.653,2.145,5.799,3.004v-2.361c-1.716-0.643-3.22-1.501-4.725-2.366l-0.646-0.425l5.37-10.533l1.721-3.649
				l0.859-1.721l4.298-8.808l0.43-0.86c0.431,0.213,0.86,0.431,1.29,0.643v-2.361l-0.215-0.216l0.215-0.213l0.429-0.647l2.794-4.293
				l1.935-3.225l3.221-5.158l4.943-7.519l3.009-4.729c0.859,0.431,1.719,0.647,2.578,1.078v-2.367
				c-0.429-0.212-0.859-0.43-1.29-0.43l1.29-1.501l1.075-1.504l1.072-1.075l3.012-3.869l3.437-3.867l1.934-2.365l3.223-4.081V39.79
				h-0.215l0.215-0.215l2.576-1.504l1.722-1.075v-0.215l2.361-1.504h0.218l-0.218,0.215l-2.361,1.934l-1.722,1.504l-1.716,1.29
				c-0.216-0.215-0.646-0.215-0.86-0.429v4.513l1.504-1.504c0.215,0.215,0.643,0.215,1.072,0.43
				c0.433,0.214,1.077,0.431,1.722,0.646v-2.365c-0.43,0-0.86-0.215-1.075-0.429l1.075-0.86l2.361-1.934l2.794-2.579v-15.04
				l-2.794-0.857v12.889V19.809L99.916,18.946z M170.393,22.814h0.215c0.43,0.646,0.644,1.075,1.074,1.719v-4.298
				c-0.43-0.426-0.859-0.858-1.289-1.29V22.814z M194.89,19.377v5.157c0.429,0.215,0.857,0.646,1.073,0.86v-6.232l-1.073-0.431
				V19.377z M193.382,23.244c0.429,0.431,1.076,0.86,1.507,1.29v-5.157c-0.216-0.215-0.431-0.215-0.86-0.431
				c0.429,0.216,0.644,0.216,0.86,0.431v-0.646l-1.507-0.644V23.244z M109.37,35.277l1.504-1.934l-1.504,3.223l-0.431,0.644
				l-1.719,4.083l-0.859,1.719h-0.214c-0.216,0-0.646-0.215-1.075-0.215v2.148c0.215,0,0.215,0,0.43,0.213l-0.43,0.86l-2.794,7.951
				l-2.361,6.446v0.431l-1.722,4.513l-0.429,1.288c-0.643,0-1.503-0.216-2.147-0.216c-1.075-0.213-2.148-0.431-3.223-0.643v2.148
				c1.075,0.213,2.148,0.431,3.223,0.643c0.429,0,1.075,0.218,1.504,0.218l-1.504,4.51l-3.223,11.175l-1.934,6.66l-1.936,6.447
				c-0.429-0.216-1.072-0.216-1.501-0.216c-1.077-0.213-2.15-0.431-3.012-0.643v2.144c0.862,0.218,1.935,0.434,3.012,0.647
				c0.429,0,0.643,0,1.072,0.218l-1.072,6.872l-3.012,22.563c-0.429,0-0.643-0.213-1.072-0.213v2.145
				c0.213,0,0.643,0.217,0.86,0.217l-0.86,6.017l-1.075,8.381l-1.719,13.535c-1.29,0-2.58-0.213-3.868-0.429
				c-1.72-0.43-3.225-0.643-4.943-1.072v2.146c1.719,0.427,3.223,0.643,4.943,1.075c1.074,0.21,2.363,0.43,3.653,0.43l-1.29,26.858
				l-2.363-0.859l-4.943-1.507v2.149l4.943,1.721l2.363,0.858l2.15,20.631l-4.513-1.078l-4.943-1.071v2.149l4.943,1.072l4.728,1.072
				l0.859,8.167v-21.058l-1.073-9.668l1.073,0.213v-2.149l-1.073-0.217l1.073-23.417l0.215-3.438h0.86v-2.149h-0.86l0.86-6.018
				l1.072-7.302l1.935-14.827c0.429,0,0.646,0.213,1.077,0.213v-2.146c-0.218,0-0.647-0.213-0.86-0.213l0.86-6.878l3.223-22.563
				h0.213c0.644,0,1.288,0.217,1.934,0.217v-2.15c-0.646,0-1.29-0.216-1.719-0.216l1.719-5.801l3.223-11.174l2.576-8.378
				l1.077-3.438h0.646v-2.15v2.15c0.858,0.212,1.501,0.212,2.361,0.212v-2.144c-0.86,0-1.503,0-2.361-0.218l2.361-6.445l2.794-8.166
				l1.075-2.794l1.073-2.579l0.431-1.501h1.288v-2.15h-0.429l0.429-0.859l0.431-0.646l2.148-4.728V20.021l-2.148-2.148V35.277z
				 M108.938,35.707l0.431-0.43V17.873l-0.431-0.215V35.707z M87.024,18.946l3.437,0.431v-2.15l-3.437-0.43V18.946z M82.941,16.584
				v2.146h1.072l3.012,0.215v-2.148l-3.012-0.213H82.941z M107.22,18.731l0.86,0.86l-0.86-0.429l-1.073-0.646v2.579v-2.579
				l-1.075-0.644v2.578l1.075,0.646l-1.075-0.429v15.04l1.075-0.859l1.073-0.857l1.075-0.86l-1.075,1.501l-1.073,1.075l-1.075,1.29
				l-2.794,3.654l-1.072,1.289c-0.431,0-0.86-0.215-1.29-0.43v2.365v0.214l-1.722,2.58l-2.576,4.081l-3.223,5.157l-1.934,3.223
				l-3.437,5.156v0.431c-1.077-0.431-2.15-0.646-3.012-1.073v2.361c0.647,0.218,1.292,0.431,1.935,0.647l-1.935,4.294l-1.072,2.154
				l-1.075,2.573l-5.586,12.465l-2.794,6.229c-0.643-0.212-1.29-0.43-2.149-0.859c-1.074-0.213-2.147-0.643-3.221-1.072v2.361
				c1.074,0.216,2.147,0.647,3.221,1.076c0.431,0.213,0.86,0.213,1.507,0.43l-1.507,3.869l-3.221,9.668l-1.935,5.583l-2.794,8.166
				l-0.214,0.647c0-0.218-0.215-0.218-0.215-0.218v10.958l0.429-1.932l1.29-6.23c0.431,0.212,0.86,0.429,1.504,0.643v-2.361
				c-0.429,0-0.644-0.218-1.073-0.218l1.073-3.009l1.935-5.587l3.221-9.451l3.439-9.886c0.429,0,1.073,0.218,1.504,0.431v-2.363
				c-0.216,0-0.431,0-0.643-0.216l0.643-1.29l5.586-12.677l1.075-2.361l1.072-2.15l3.012-7.093l1.072-2.144
				c0.644,0.211,1.504,0.429,2.365,0.643v-2.362c-0.431,0-0.86,0-1.29-0.218l1.29-1.932l1.934-3.223l3.223-5.373l2.576-3.867
				l1.722-2.577v-0.217l2.148-3.437h0.213c0.862,0.213,1.934,0.429,2.794,0.429v-2.148c-0.429,0-1.072-0.214-1.503-0.214l1.503-2.15
				l1.075-1.288l1.073-1.075l1.719-2.364V17.658l-1.719-1.72V18.731z M188.871,20.021c1.504,1.075,3.01,2.15,4.512,3.224v-5.157
				l-2.147-0.86c-0.644-0.43-1.504-0.859-2.365-1.29V20.021z M187.797,19.377c0.429,0.214,0.859,0.432,1.073,0.644v-4.083
				c-0.214-0.212-0.644-0.43-1.073-0.642V19.377z M106.146,17.873l1.073,0.858v-2.793l-1.073-0.857V17.873z M95.618,16.368
				l1.29,0.216c-0.429,0.213-0.86,0.643-1.29,0.86h-0.215l-3.008-0.217h-1.934v2.15h1.934h0.429
				c-0.215,0.214-0.215,0.432-0.429,0.644c-0.215,0-0.215,0-0.215,0.215h-1.719l-3.437,0.215l-3.012,0.216h-1.072h-1.075
				l-5.586,0.429v2.148l5.586-0.43h1.075h1.072l3.012-0.214l3.005-0.215c-0.211,0.215-0.429,0.644-0.643,0.859l-2.363,0.431
				l-3.012,0.43l-1.072,0.214l-1.075,0.215l-5.586,0.86l-4.943,0.858v2.15l4.943-0.86l5.586-0.858l1.075-0.215l1.072-0.216
				l3.012-0.429l0.858-0.215l-0.216,0.43l-0.643,0.214l-3.012,0.86l-1.072,0.429l-1.075,0.213l-5.586,1.722l-4.943,1.288
				l-3.221,1.073l-1.935,0.43v2.151l1.935-0.43l3.221-1.078l4.943-1.287l5.586-1.719l1.075-0.215l1.072-0.214l3.012-0.863
				c-0.218,0.432-0.218,1.078-0.218,1.504l-2.794,1.078l-1.072,0.212l-1.075,0.431l-5.586,1.934l-4.943,1.719l-3.221,1.075
				l-1.935,0.859l-2.794,0.86L62.957,38.5v2.15h0.429l2.794-1.075l1.935-0.646l3.221-1.073l4.943-1.721l5.586-1.934l1.075-0.43
				l1.072-0.429l3.012-1.075v0.861c0.211,0.213,0.211,0.643,0.429,0.86l-0.429,0.212l-3.012,1.504l-1.072,0.429l-1.075,0.431
				l-5.586,2.58l-4.943,2.363l-3.221,1.504l-1.935,0.86l-2.794,1.504h-0.429v6.446c0.215,0.213,0.215,0.428,0.429,0.643v-4.513
				c0,0,0-0.213-0.214-0.213h0.214l2.794-1.504l1.935-0.858l3.221-1.504l4.943-2.365l5.586-2.579l1.075-0.43l1.072-0.429
				l3.012-1.504l1.287-0.646c0,0.215,0.214,0.431,0.429,0.86l-1.716,0.86l-3.012,2.148l-1.072,0.644l-1.075,0.646l-5.586,3.651
				l-4.943,3.01l-3.221,2.147l-1.935,1.29v4.728c0.646,0.646,1.29,1.29,1.935,1.719v-2.792c-0.431-0.431-0.86-1.075-1.29-1.504
				l1.29-0.86l3.221-2.15l4.943-3.005l5.586-3.653l1.075-0.646l1.072-0.644l3.012-2.15l3.005-1.934
				c0.218,0.214,0.218,0.214,0.431,0.214v-3.223c-0.213,0-0.213,0-0.213-0.214h0.213v-2.15l-1.074,0.217
				c-0.216-0.432-0.216-0.861-0.431-1.291l1.504-0.431v-2.147l-1.504,0.431c0-0.646,0.214-1.078,0.431-1.719h1.074v-2.15h-0.213
				c0,0,0-0.215,0.213-0.215v-0.214v0.214v-0.214h1.934v-2.15h-0.43c0.215,0,0.215-0.215,0.43-0.215
				c0.214-0.215,0.429-0.429,0.644-0.644l2.579,0.429v-2.148l-0.644-0.216c0.215,0,0.429-0.215,0.644-0.43
				c0.215,0,0.215-0.211,0.215-0.211l2.361,0.857V14.65l-2.576-0.429V16.368z M165.237,17.658h0.857
				c1.29,0.859,2.148,1.934,3.008,3.009l-3.866-0.216l-1.935-0.215h-0.644v2.15h0.644l1.935,0.215l5.155,0.214v-3.869
				c-0.216-0.429-0.431-0.644-0.86-1.073l0.86,0.214v-2.149l-3.439-0.43c-0.644-0.643-1.073-1.075-1.716-1.504V17.658z
				 M185.003,20.235c0.859,0.646,1.934,1.504,2.794,2.365v-2.791c0-0.218-0.215-0.218-0.431-0.432h0.431v-4.081
				c-0.86-0.431-1.935-0.863-2.794-1.292V20.235z M111.518,18.731l0.429,0.86V14.65l-0.429-0.858V18.731z M92.395,15.726
				l3.223,0.643v-2.147l-3.223-0.647V15.726z M90.461,15.296l1.934,0.43v-2.151l-1.934-0.429V15.296z M102.277,16.368v2.363
				l2.794,1.719v-2.578L102.277,16.368c0.433-0.213,1.075-0.431,1.504-0.643l1.29,1.29v-4.083c-0.213,0-0.643,0.213-0.86,0.429
				l-1.934-1.29V16.368z M179.63,16.797c0.218,0,0.218,0,0.431,0.218h-0.431l-7.949-1.078h-1.289v2.149h1.289l7.949,1.075
				l4.513,0.429c0.215,0.218,0.431,0.429,0.86,0.644v-6.232c-1.719-0.643-3.438-1.501-5.373-2.147V16.797z M99.916,13.145
				l1.719,1.076c-0.647,0.212-1.076,0.429-1.719,0.859l-1.722-0.43v3.651v2.365l1.722,0.429v-2.15l-1.722-0.644
				c0.647-0.215,1.077-0.644,1.722-0.857l2.361,1.287v-6.66l-2.361-1.288V13.145z M109.37,14.221l2.148,4.51v-4.939l-0.215-0.218
				c0-0.213,0.215-0.213,0.215-0.213v-2.148c-0.43,0.214-1.075,0.214-1.504,0.429l-0.644-0.859V14.221z M99.916,10.783v2.362v-2.578
				V10.783z M108.938,14.003h0.216l0.215,0.218v-3.438l-0.431-0.216V14.003z M157.716,13.145l1.504-0.213
				c1.288,0.643,2.363,1.29,3.438,1.934v-3.867c-1.504-0.215-2.579-0.215-3.009-0.215l-0.646-0.432
				c-0.429-0.213-0.859-0.428-1.288-0.643V13.145z M171.681,12.717c1.72,0.857,3.439,1.504,4.943,2.363
				c1.075,0.646,2.147,1.075,3.006,1.717v-4.941c-2.576-0.858-5.156-1.934-7.949-2.578V12.717z M170.393,12.502h0.43
				c0.215,0,0.429,0.214,0.859,0.214V9.279c-0.43-0.216-0.859-0.216-1.289-0.431V12.502z M107.22,11.642l0.431,0.429
				c-0.216,0.216-0.431,0.216-0.431,0.216c-0.429,0.215-0.644,0.215-1.073,0.215c-0.216,0.214-0.646,0.214-1.075,0.429v4.083
				l1.075,0.857V15.08v-0.215c0.429-0.215,0.644-0.215,1.073-0.432c0.431,0,1.075-0.212,1.719-0.43v-3.437l-1.719-1.934V11.642z
				 M165.237,10.351c0.857,0.432,1.934,0.862,3.006,1.076c-1.072,0-2.148-0.214-3.006-0.214c-0.647,0-1.29-0.215-1.935-0.215h-0.644
				v3.867c0.215,0.215,0.429,0.431,0.644,0.431v-2.364c0-0.215,0-0.215-0.215-0.215h0.215c0.646,0,1.288,0,1.935-0.214h5.155V8.848
				c-1.72-0.429-3.439-1.075-5.155-1.504V10.351z M162.658,6.915v2.794c0.215,0,0.429,0.214,0.644,0.214
				c0.646,0.215,1.288,0.428,1.935,0.428V7.344c-0.647,0-1.29-0.215-1.935-0.429H162.658z M157.716,9.494l3.438-0.215
				c0.429,0.215,1.072,0.215,1.504,0.43V6.915c-1.504-0.43-3.224-0.86-4.942-1.075V9.494z M151.913,7.344
				c0.43,0,0.859,0.215,1.504,0.215h-1.29h-0.215v2.364c1.504,0.428,2.578,0.86,3.868,1.29V5.41
				c-1.29-0.215-2.578-0.429-3.868-0.646V7.344z M133.434,27.113h-0.43H133.434z M140.956,3.477v4.728l1.075-0.431l0.644-0.215
				c1.934,0.215,3.869,0.646,5.588,1.075l-6.232,1.934l-1.075,0.216l-2.15,0.644l-1.504,0.429l-0.857,0.215v3.009l0.213,0.216
				h-0.213l-3.01,1.289l-2.147,0.86v2.365v11.169v2.365l2.147,1.077v-2.365l-2.147-1.077l2.147,0.647v-2.148l-0.643-0.216h0.643
				v-2.148v2.148l3.01,0.646v-2.151l-3.01-0.643l3.01,0.215v-2.148h-0.429l0.429-0.215v-4.083l-1.506,0.215l1.506-0.429l0.857-0.216
				l1.504-0.43l2.15-0.644l1.075-0.215v-3.225v3.225l0.215-0.216c0.214,0.216,0.429,0.646,0.644,0.863l-0.859,0.211h-1.075
				l-2.15,0.43l-1.504,0.216l-0.857,0.214v4.083h0.857h1.504v-2.15h-1.074l1.074-0.214l2.15-0.43h1.075l2.148-0.431
				c0.215,0.215,0.215,0.431,0.215,0.646L142.03,22.6h-1.075l-2.15,0.214v2.15l2.15-0.216h1.075l3.009-0.215v0.431v0.43h-3.009
				l-1.075-0.215h-2.15h-1.504h-0.857v2.148h0.857h1.504h2.15l1.075,0.214h2.578c0,0.431-0.214,0.86-0.429,1.29l-2.148-0.218
				l-1.075-0.212v2.147l1.075,0.216l1.073,0.213c-0.214,0.218-0.644,0.647-0.858,1.077l-0.215-0.216l-1.075-0.213v6.66l1.075,0.644
				v-2.578l-0.646-0.431c0.215-0.214,0.429-0.429,0.646-0.429c0.215-0.429,0.644-0.644,0.859-0.86l9.024,4.515v-2.58l-7.52-3.654
				c0.214-0.43,0.646-1.074,0.86-1.504l6.66,2.151v-2.151l-5.584-1.931c0.214-0.646,0.426-1.075,0.426-1.722l5.158,1.291v-2.148
				l-4.728-1.29v-0.86v-0.215l4.728,0.646v-2.15l-5.158-0.644c0-0.215-0.212-0.431-0.212-0.646l5.37,0.215v-2.146l-6.445-0.218
				c-0.215-0.429-0.429-0.646-0.646-0.86l7.09-0.429l3.868-0.215h1.935l4.942-0.429h0.644h1.935v-3.654
				c-0.647-0.429-1.29-0.858-1.935-1.072v2.364c0.216,0.212,0.216,0.212,0.428,0.212h-0.428h-0.644l-4.942,0.43h-1.935l-3.868,0.217
				l-8.81,0.643c-0.429-0.429-0.644-0.643-1.073-0.86l9.883-1.716l3.868-0.647l1.935-0.429V9.708c-0.216,0-0.431,0-0.646-0.215
				h0.646V5.839c-0.646-0.214-1.29-0.214-1.935-0.429v5.803v0.214l-3.868,0.644l-9.883,1.721h-1.075l-1.719,0.429
				c0-0.218-0.215-0.218-0.431-0.429v2.792h0.216c0.43,0.213,0.859,0.431,1.288,0.86l-1.504,0.428l-1.504,0.429l-0.857,0.215
				l-3.01,0.646l-2.147,0.647l2.147-0.863l3.01-1.288l0.857-0.431l1.504-0.643v-2.792h-0.215l0.215-0.218l2.15-0.643l1.075-0.215
				l9.883-2.794V7.559c-0.646-0.215-1.075-0.43-1.717-0.43c0.643,0,1.072,0,1.717,0.215V4.765c-3.436-0.43-6.66-0.859-9.883-1.288
				H140.956z M123.336,32.055l0.215,0.213L123.336,32.055z M126.128,17.873l-0.644,0.429L126.128,17.873z M131.287,2.834h-2.15v3.22
				h1.075l-1.075,0.86l-1.934,1.719l-1.075,0.86l-1.073,0.857h-1.504h-0.86v2.151h0.86l-0.86,1.072l-1.504,2.151l-0.859,1.501
				v14.828v4.297l0.859,1.934V33.56l-0.859-1.504l0.859,0.857l1.504,1.507V17.873l-0.857,0.858l0.857-1.287l0.86-1.507l2.363-3.435
				h0.214c0.216,0.214,0.646,0.214,1.075,0.214c0.429,0,0.86,0.215,1.075,0.215l-1.075,1.072l-1.075,0.862l-2.578,2.15l-0.86,0.857
				V34.42l0.86,1.072v-3.223v3.223l2.578,2.794v-3.223l-2.578-2.794l2.578,1.722v-2.582l-1.073-0.643l1.073,0.431V17.873v13.324
				l1.075,0.43l1.934,0.857l2.15,0.86v-2.365h-0.215h0.215V19.809l-0.43,0.211l0.43-0.211v-2.365l-1.507,0.643l1.507-0.86
				l2.147-1.29l2.151-1.287c0.212,0.215,0.43,0.43,0.859,0.43v-3.009l-1.076,0.431c-0.43-0.215-1.075-0.431-1.504-0.646l2.581-1.29
				l0.857-0.429l1.504-0.644l2.15-1.29V3.477c-0.646-0.216-1.504-0.216-2.15-0.216v3.654V3.26c-0.644-0.215-1.074-0.215-1.504-0.215
				h-0.857v3.439c0.213,0.215,0.428,0.215,0.857,0.215c0.431,0,0.86,0,1.504,0.215l-1.504,0.859l-0.857,0.431l-3.01,1.504
				l-2.147,1.075l-0.646,0.43c-0.644-0.215-1.074-0.215-1.504-0.43v4.297l1.935-1.719h0.215c0.644,0.213,1.075,0.431,1.504,0.431
				l-1.504,0.858l-2.15,1.504l-1.934,1.072l-1.075,0.646l1.075-1.075l1.934-1.717v-4.297h-1.074l1.074-1.075l2.15-1.719l1.934-1.72
				h0.213c1.075,0.216,1.934,0.216,3.01,0.216V3.045c-1.076,0-1.935-0.211-3.01-0.211H131.287z M8.164,91.787v5.804
				c0,1.719,0.218,3.438,0.429,5.159l-3.005,7.948l-2.794,7.738l0.215-8.814l2.579-9.021L8.164,91.787z M19.338,64.714l-1.504,1.935
				v-0.216v0.216L19.338,64.714z M30.082,49.03l-3.866,5.37l-1.077,1.29l-1.288,1.934l-1.288,1.504l-2.582,3.866l-0.212,0.217
				c0-0.217,0-0.217,0.212-0.429c0.647-1.29,1.722-2.794,2.582-4.083c0.429-0.644,0.859-1.29,1.288-1.719
				c0.431-0.644,0.859-1.29,1.288-1.934c0.429-0.431,0.647-0.86,1.077-1.29C27.288,52.038,28.577,50.533,30.082,49.03
				 M49.636,32.913c0.43-0.43,0.859-0.644,1.29-1.074c-0.86,0.859-1.504,1.504-2.365,2.363l-0.215,0.218l-2.794,1.716
				c0.86-0.644,1.719-1.504,2.794-2.146C48.776,33.56,49.205,33.343,49.636,32.913 M116.029,12.717h0.429
				c0.647-0.214,1.504-0.214,2.151-0.214v0.214l-2.151,6.875L116.029,12.717z M126.128,2.834h-2.578h-0.86h-1.504
				c-0.43,0-0.645,0-0.859,0.211h-1.718c-1.076,0.215-1.934,0.215-3.011,0.431c-0.857,0-1.931,0.215-2.791,0.215l-0.215,0.214
				h-0.646c-0.215,0-0.429,0-0.429,0.215c-0.859,0-1.504,0.214-2.148,0.214c-0.215,0.215-0.215,0.215-0.431,0.215
				c-0.644,0-1.288,0.215-1.719,0.215c-0.429,0.216-0.644,0.216-1.073,0.216c-0.216,0.214-0.646,0.214-1.075,0.214
				c-0.86,0.215-1.932,0.43-2.794,0.644c-0.86,0.215-1.503,0.43-2.361,0.646c-0.646,0.215-1.29,0.43-1.722,0.43
				c-0.857,0.214-1.716,0.429-2.576,0.644c-1.075,0.431-2.148,0.646-3.223,1.075c-0.646,0.215-1.29,0.43-1.934,0.646
				c-1.29,0.215-2.365,0.644-3.437,1.072c-1.077,0.432-2.15,0.647-3.012,1.076c-0.429,0.215-0.643,0.215-1.072,0.429
				c-0.43,0.215-0.644,0.215-1.075,0.431c-1.934,0.644-3.867,1.504-5.586,2.363c-1.72,0.646-3.225,1.287-4.943,2.147
				c-1.074,0.43-2.147,1.075-3.221,1.719c-0.646,0.214-1.29,0.646-1.935,0.86c-1.073,0.644-1.934,1.073-2.794,1.504
				c-0.214,0.215-0.214,0.215-0.429,0.215c-0.644,0.429-1.075,0.644-1.719,1.075c-1.504,0.859-2.794,1.719-4.298,2.578
				c-0.215,0.216-0.644,0.431-0.859,0.646c-0.643,0.429-1.29,0.644-1.721,1.075c-2.146,1.287-4.081,2.792-6.014,4.297
				c-2.15,1.503-4.298,3.225-6.232,4.941c-0.431,0.429-1.075,0.86-1.504,1.29c-0.431,0.429-0.86,0.646-1.29,1.075
				c-0.428,0.429-0.857,0.859-1.288,1.075c-0.646,0.644-1.288,1.288-1.934,1.934c-0.429,0.429-0.858,0.859-1.29,1.29
				c-0.215,0.215-0.215,0.215-0.429,0.429c-0.644,0.644-1.075,1.29-1.719,1.932c-2.364,2.363-4.513,4.728-6.445,7.307
				c-0.43,0.429-0.647,0.858-1.077,1.073c-0.429,0.646-0.857,1.29-1.288,1.935c-0.429,0.43-0.859,1.074-1.288,1.504l-2.582,3.867
				c-0.212,0.215-0.43,0.431-0.643,0.646c-1.074,1.931-2.363,3.867-3.438,5.799c-1.075,1.937-2.363,4.081-3.224,6.017l-0.643,0.647
				l-1.076,1.503l-0.215,0.429L5.588,93.077L0.86,109.192v0.218L0.215,146.15v0.217l5.373,20.628v-12.248l-0.647,9.239l0.429-6.23
				l-3.005-11.818l0.214-14.747l-1.935-5.884l1.935,5.801v0.083l3.009,9.159v-6.662l-2.794-8.592l2.794-8.167l3.652-9.886
				c0.643,3.439,1.503,6.448,2.794,9.457v-6.66c-0.647-2.15-1.076-4.298-1.291-6.664l1.291-1.932v-3.868l-1.722,2.366v-2.366
				c-0.215-3.01,0-6.23,0.431-9.457l1.291-1.501v-3.439l-0.429,0.431c0.212-0.643,0.212-1.29,0.429-1.932
				c0.599-2.597,1.571-5.199,2.566-7.794l-0.204,0.27l0.429-0.854c-0.074,0.194-0.148,0.389-0.225,0.585l0.441-0.585l0.859-0.86
				l3.438-4.298v-3.225v3.225l0.643-0.429l2.582-3.226l1.288-1.29l0.213-0.641c0,0.429-0.213,0.858-0.213,1.288
				c-0.646,1.29-0.859,2.579-1.288,3.869c-0.218,0.86-0.431,1.715-0.646,2.575l-1.937,2.795l-0.643,0.647L15.9,78.039l-3.866,4.939
				v3.439l3.866-4.94l3.438-4.516l0.643-0.643l1.507-1.935c-0.215,1.719-0.215,3.438-0.215,5.375c0,1.072,0,2.362,0.215,3.438
				l-1.507,2.579l-0.643,0.643L15.9,91.574l-3.866,5.801v3.868l3.866-5.8l3.438-5.158l0.643-0.859l1.937-3.009
				c0.215,0.859,0.428,1.719,0.646,2.578c0.429,1.29,0.643,2.579,1.288,3.869v-8.808l-0.216-0.218h0.216v-3.222l-0.429,0.431V79.54
				c-0.216-2.148,0-4.51,0.429-6.873v-0.039c0,0.009,0,0.025,0,0.039v-0.039c0-0.431,0.004-1.051,0.213-1.467l1.075-1.29v-3.008
				l-0.214,0.429c0-0.429,0.214-0.858,0.214-1.072c0.216-1.077,0.647-1.937,1.077-2.795c0.643-2.361,1.717-4.511,2.791-6.66
				l3.654-3.009v-2.579l-0.429,0.218c0-0.218,0.215-0.433,0.429-0.647c0.43-0.86,1.075-1.718,1.719-2.577
				c0.214,0,0.214-0.217,0.429-0.217c0.431-0.643,0.86-1.287,1.29-1.718c0.43-0.858,1.075-1.506,1.718-2.148l0.216-0.214l1.288-0.86
				l1.29-0.859l1.504-1.075l1.934-1.29c-0.644,1.075-1.29,2.148-1.934,3.008c-0.214,0.43-0.431,0.86-0.646,1.29L40.61,44.73
				l-1.29,1.077l-1.288,0.86l-1.934,1.716l-1.29,1.075l-0.429,0.215l-1.719,1.504v2.579l1.719-1.29l0.429-0.429l1.29-0.86
				l1.934-1.719l1.288-1.075v0.218c-0.428,1.287-0.857,2.361-1.288,3.651c-0.216,0.644-0.216,1.504-0.429,2.148l-1.504,1.719
				l-1.29,1.29l-0.429,0.215l-1.719,1.935l-6.445,6.443l-1.077,0.86v3.008l1.077-0.858l6.445-6.448l1.719-1.932l0.429-0.215
				l1.29-1.29l1.075-1.073c0,0.859-0.218,1.934,0,2.794v2.146c0.213,0.647,0.213,1.075,0.213,1.72l-1.288,1.719l-1.29,1.505
				L34.38,68.37l-1.719,1.931l-6.445,7.52l-1.077,1.076l-1.288,1.719v3.222l1.288-1.503l1.077-1.076l6.445-7.519l1.719-2.15
				l0.429-0.429l1.29-1.507l1.934-2.362v0.218c0.431,1.072,0.86,2.361,1.288,3.434v-9.237v-0.857c-0.213-0.86,0-1.935,0-2.794
				c0-0.86,0.216-1.504,0.216-2.365l1.074-0.644v-2.579l-0.431,0.215c0.218-0.43,0.218-0.857,0.431-1.287
				c0.429-1.292,0.858-2.583,1.504-3.871c0.215-0.646,0.644-1.288,0.859-1.935l5.373-2.791v-2.364l-3.223,1.72
				c0.859-1.504,1.934-3.008,3.223-4.298c0.43-0.646,1.075-1.29,1.504-1.936l4.51-1.719v-2.363l-0.429,0.216
				c0-0.216,0.218-0.216,0.429-0.429c0.431-0.43,1.078-0.86,1.721-1.507c0.215-0.212,0.644-0.427,0.859-0.641
				c0.432-0.431,1.075-0.863,1.504-1.292l2.794-0.857l1.719-0.644l0.429-0.215l2.794-0.86v-2.364l-1.073,0.431
				c0.429-0.215,0.644-0.431,1.073-0.646c0.646-0.429,1.29-0.859,1.935-1.29c0.857-0.429,1.934-0.859,2.791-1.504h0.43l2.364-0.644
				c-0.646,0.644-1.504,1.29-2.147,1.719h-0.217l-3.221,1.29l-1.935,0.644v2.364l1.504-0.644c-0.644,0.644-1.073,1.074-1.504,1.719
				c-0.215,0.215-0.429,0.429-0.429,0.644l-2.365,0.857l-0.429,0.217l-1.719,0.644l-4.298,1.719l-0.859,0.431l-1.721,0.643v2.363
				l1.721-0.643l0.859-0.43l4.298-1.722l1.719-0.643l0.429-0.216c-0.214,0.429-0.214,0.647-0.429,0.859
				c-0.43,0.647-0.859,1.504-1.075,2.151l-0.644,0.431l-4.298,2.146l-0.859,0.431l-1.721,0.859l-6.014,3.009v2.364l6.014-3.008
				l1.721-0.86l0.859-0.43l3.869-1.934c-0.431,1.075-0.646,1.934-0.646,3.009l-3.223,2.148l-0.859,0.646l-1.721,1.073l-6.014,3.869
				l-6.232,4.083l-1.504,1.072v2.579l1.504-1.075l6.232-4.083l6.014-3.867l1.721-1.29l0.859-0.428l3.008-2.148v0.43
				c0,0.214,0.215,0.644,0.215,1.075c0,1.072,0.215,2.148,0.431,3.009l-3.654,3.005l-0.859,0.644l-1.721,1.29l-6.014,4.729
				l-6.232,4.728l-1.504,1.072l-1.29,0.859v-0.212v-1.076v9.237c0.43,0.86,0.859,1.724,1.29,2.583V68.37
				c-0.431-1.078-0.643-1.937-0.86-2.797l0.86-0.643l1.504-1.29l6.232-4.728L54.36,54.4l1.721-1.29l0.859-0.859l4.298-3.222
				l0.215-0.218c0.429,1.075,0.86,2.15,1.504,3.012v-6.446l-0.43,0.211c0-0.643-0.214-1.287-0.214-2.147
				c-0.215-0.214-0.215-0.644-0.215-1.073v-1.29l0.859-0.43V38.5l-0.43,0.215c0-0.644,0.215-1.29,0.43-1.934
				c0.215-0.429,0.215-0.86,0.429-1.29v-0.215v0.215v-0.215l2.794-0.857v-2.151l-1.504,0.429c0.431-0.859,0.86-1.719,1.504-2.362
				c0.215-0.429,0.431-0.858,0.86-1.29h1.075l3.221-0.644v-2.15l-2.147,0.431c0.643-0.86,1.502-1.504,2.147-2.365
				c0.431-0.214,0.86-0.644,1.078-0.859l3.866-0.216v-2.148h-0.86c0.218-0.215,0.645-0.429,0.86-0.646
				c0.43-0.215,0.859-0.641,1.288-0.859c0.646-0.429,1.29-0.86,1.936-1.29l2.363,0.215l1.075,0.214v-2.146h-0.215
				c0-0.216,0.215-0.216,0.215-0.216c0.429-0.213,0.643-0.213,1.072-0.431c0.862-0.43,1.722-1.072,2.581-1.504l0.431,0.217
				l3.437,0.646v-2.151H90.03c0.218-0.213,0.218-0.213,0.431-0.213c0.644-0.215,1.288-0.429,1.934-0.644
				c1.075-0.431,2.148-0.86,3.223-1.29h0.429l2.147,1.29l1.722,0.857v-2.578l-1.075-0.429c0.215-0.215,0.646-0.215,1.075-0.429
				c0.858-0.215,1.501-0.43,2.361-0.646c0.644,0,1.291-0.215,1.722-0.43l1.072,1.075l1.075,1.075l1.073,0.859V8.633l-0.644-0.429
				c0.215,0,0.429-0.215,0.644-0.215s0.646,0,0.86-0.216h0.858c0.216,0,0.216,0,0.431-0.215c0.644,0,1.29-0.215,2.148-0.215h0.429
				c0.216-0.215,0.646-0.215,0.86-0.215h0.215l0.646,3.654c-0.216,0.215-0.646,0.215-0.86,0.215s-0.644,0.215-0.86,0.215h-0.429
				v2.148h0.429c0.216,0,0.646-0.216,0.86-0.216c0.429,0,0.644,0,1.075-0.213l0.43,6.877l-1.504-3.225l-0.86-1.934v4.941l0.431,1.29
				l-0.431-0.646l-0.429-0.215v16.976l0.429-0.86l0.86-1.934l0.644-1.504l-0.644,4.298l-0.86,6.017l-0.215,0.429h-0.214
				c-0.859,0-1.504,0-2.148-0.214h-0.431v2.15h0.431c0.644,0,1.29,0.211,2.148,0.211v0.647l-2.148,20.844l-0.215,0.211h-0.216
				h-1.719h-1.073h-1.075v2.15h1.075h1.073h1.719h0.216l-0.216,0.643l-1.719,24.281l-0.429,4.298h-0.644h-1.075h-2.794h-2.361v2.15
				h2.361h2.794h1.075h0.429l-0.429,13.753l-0.431,15.686c-0.214,0-0.429,0.213-0.644,0.213h-2.794h-2.361v2.15h2.361
				c0.862,0,1.934,0,2.794-0.214h0.644l0.431,7.948l1.073,13.968l0.215,6.012h-0.215c-0.429,0.216-0.644,0.216-1.073,0.216h-1.075
				h-2.15h-0.644c-0.86,0-1.503,0.22-2.361,0.22h-1.722v2.144h1.722c0.858-0.213,1.501-0.213,2.361-0.213h0.644h2.15h1.075
				c0.429,0,0.644,0,1.073-0.214h0.431l1.288,10.741v-22.991l-1.073-17.83h1.073v-2.149h-1.073l0.859-29.439h0.214v-2.15v-0.643
				l0.431-3.438l1.934-25.141h0.215v-2.15h-0.215l0.215-0.643l0.429-3.867l0.86-9.026l0.86-8.167h0.214
				c0.644-0.211,1.287-0.211,1.716-0.211v-2.15c-0.43,0-1.072,0-1.716,0.214l1.716-10.959V10.351l-0.43-3.651h0.43h1.078
				c0.644-0.215,1.287-0.215,1.934-0.215c0.43,0,1.072-0.216,1.718-0.216h0.859h0.647l-0.647,1.075l-0.859,1.719l-0.857,1.288h-0.86
				c-0.86,0-1.504,0.216-2.364,0.216h-0.43l-0.217-0.216v22.132l0.217-0.214l1.504,10.745c-0.429,0.215-1.075,0.215-1.722,0.215
				v2.15c0.647,0,1.292,0,1.935-0.218h0.216l0.86,6.017V36.352l-0.86-4.726l0.86,1.504l1.718,3.222V17.227l-1.504,1.935l1.504-4.512
				l0.644-2.148h0.215h1.504v-2.151h-0.644l0.644-1.288l0.86-1.504l0.859-1.504h1.719h1.075h1.934v-3.22
				c-0.644-0.218-1.288-0.218-1.934-0.218C126.774,2.616,126.345,2.616,126.128,2.834"/>
		</defs>
		<clipPath id="SVGID_4_">
			<use xlink:href="#SVGID_3_"  overflow="visible"/>
		</clipPath>
		<g clip-path="url(#SVGID_4_)">
			<defs>
				<rect id="SVGID_5_" width="348.515" height="259.344"/>
			</defs>
			<clipPath id="SVGID_6_">
				<use xlink:href="#SVGID_5_"  overflow="visible"/>
			</clipPath>
			<g clip-path="url(#SVGID_6_)">
				<image overflow="visible" width="487" height="363" xlink:href="1877A232.jpg"  transform="matrix(0.7156 0 0 0.7144 0 0)">
				</image>
			</g>
		</g>
	</g>
	<g>
		<defs>
			<path id="SVGID_7_" d="M234.208,142.713c2.579,0,4.729,0.646,6.877,2.146c1.934,1.508,3.651,3.651,4.728,6.45
				c1.288,2.576,1.932,6.017,1.932,9.668c0,4.081-0.644,7.306-1.932,10.098c-1.291,2.796-2.794,4.945-4.942,6.446
				c-1.934,1.288-4.298,1.931-6.663,1.931h-0.429c-3.869,0-7.089-1.501-9.668-4.723c-2.794-3.225-4.083-7.734-4.083-13.322
				c0-6.23,1.29-10.74,4.083-13.969c2.579-3.008,5.799-4.513,9.668-4.726H234.208z M233.779,132.401
				c-2.147,0.214-4.083,1.072-6.018,1.932c-3.005,1.501-5.799,4.08-8.378,7.519v-1.931c0-2.58-0.646-4.517-1.934-6.018
				c-1.289-1.288-3.008-1.937-5.155-1.937c-1.937,0-3.654,0.648-4.944,1.937c-1.073,1.501-1.719,3.438-1.719,6.23v62.313
				c0,3.225,0.431,5.588,1.29,7.306c0.86,1.507,2.794,2.366,5.373,2.366c4.725,0,7.089-3.225,7.089-9.455V180.96
				c2.579,3.222,5.157,5.588,7.949,7.306c1.937,1.074,4.083,1.72,6.447,2.146c1.29,0.216,2.579,0.216,3.869,0.216
				c3.438,0,6.66-0.643,9.668-1.937c3.008-1.285,5.586-3.216,7.736-5.795c2.361-2.582,4.083-5.804,5.155-9.455
				c1.29-3.657,1.934-7.737,1.934-12.254c0-6.011-1.075-11.169-3.223-15.68c-2.147-4.299-5.156-7.737-8.808-10.104
				c-3.868-2.144-7.95-3.438-12.462-3.438C236.358,131.967,235.069,132.183,233.779,132.401 M279.761,113.277
				c-1.073,0.429-1.719,1.29-2.361,2.362c-0.647,0.86-0.859,1.937-1.077,3.439c-0.214,1.288-0.214,3.008-0.214,5.37v8.813h-1.503
				c-2.148,0-3.867,0.427-4.942,1.501c-1.29,0.862-1.719,2.15-1.719,3.651c0,1.508,0.429,2.796,1.504,3.657
				c1.075,1.072,2.794,1.501,4.728,1.501h1.933v27.721c0,4.51,0.432,8.16,1.075,10.746c0.859,2.789,2.363,4.939,4.728,6.44
				c2.147,1.507,5.588,2.149,10.098,2.149c4.942,0,8.593-0.429,10.956-1.72c2.579-1.288,3.87-3.009,3.87-5.369
				c0-1.501-0.429-2.579-1.291-3.438c-1.071-1.072-2.146-1.508-3.222-1.508c-0.861,0-1.934,0.216-3.435,0.436
				c-1.291,0.423-2.582,0.423-3.441,0.423c-1.504,0-2.577-0.213-3.223-1.071c-0.859-0.646-1.287-1.718-1.287-3.009
				c-0.215-1.072-0.215-3.009-0.215-5.158v-26.643h2.578c2.792,0,5.155-0.429,6.659-1.071c1.502-0.859,2.363-2.15,2.363-4.087
				c0-1.501-0.643-2.789-1.721-3.651c-1.071-1.074-2.576-1.501-4.723-1.501h-5.157v-9.886c0-2.578-0.218-4.296-0.431-5.799
				c-0.431-1.294-0.858-2.366-1.934-3.227c-1.505-1.501-3.224-2.148-4.942-2.148C282.125,112.2,280.834,112.63,279.761,113.277
				 M146.973,176.45c-2.579-1.078-4.942-2.793-7.092-5.158c-1.934-2.363-3.437-5.375-4.725-9.026
				c-1.075-3.438-1.504-7.519-1.504-11.818c0-4.51,0.43-8.377,1.504-12.034c1.288-3.438,2.791-6.23,4.725-8.59
				c1.934-2.15,4.083-3.869,6.875-5.159c2.582-1.076,5.588-1.719,8.597-1.719h0.429c4.298,0,7.949,1.072,11.39,3.222
				c3.437,2.148,6.014,5.157,7.95,9.457c1.719,4.083,2.579,9.02,2.579,14.823c0,6.018-0.86,11.176-3.01,15.47
				c-1.934,4.086-4.513,7.306-7.948,9.242c-3.439,1.934-7.092,3.008-10.961,3.008h-0.215
				C152.558,178.167,149.549,177.735,146.973,176.45 M155.352,110.698c-5.803,0-11.173,0.86-15.9,2.579
				c-4.513,1.719-8.594,4.511-11.818,7.949c-3.223,3.438-5.799,7.736-7.521,12.677c-1.719,4.945-2.361,10.527-2.361,16.544
				c0,5.805,0.643,11.176,2.361,16.115c1.722,5.158,4.083,9.458,7.307,12.89c3.224,3.657,7.306,6.447,12.033,8.384
				c4.728,1.934,10.098,2.792,16.33,2.792c6.016,0,11.604-0.858,16.331-2.792c4.728-1.937,8.593-4.727,11.817-8.164
				c3.223-3.651,5.802-7.951,7.307-12.896c1.717-4.939,2.576-10.311,2.576-16.328c0-8.164-1.501-15.256-4.51-21.271
				c-3.009-6.018-7.307-10.529-13.108-13.967c-5.801-3.222-12.464-4.511-20.413-4.511H155.352z"/>
		</defs>
		<clipPath id="SVGID_8_">
			<use xlink:href="#SVGID_7_"  overflow="visible"/>
		</clipPath>
		<g clip-path="url(#SVGID_8_)">
			<defs>
				<rect id="SVGID_9_" x="112.593" y="110.562" width="194.328" height="101.778"/>
			</defs>
			<clipPath id="SVGID_10_">
				<use xlink:href="#SVGID_9_"  overflow="visible"/>
			</clipPath>
			<g clip-path="url(#SVGID_10_)">
				
					<image overflow="visible" width="272" height="143" xlink:href="1877A235.jpg"  transform="matrix(0.7144 0 0 0.7118 112.5928 110.5615)">
				</image>
			</g>
		</g>
	</g>
	<g>
		<defs>
			<path id="SVGID_11_" d="M354.875,132.038c-1.614,0.204-2.943,0.858-3.988,2.081c-1.294,1.505-1.937,3.651-1.937,6.444v17.622
				c0,6.873-0.43,11.386-1.289,13.319c-1.074,2.366-2.579,4.297-4.729,5.804c-2.147,1.501-4.51,2.144-6.873,2.144
				c-2.579,0-4.513-0.643-6.018-1.931c-1.291-1.291-2.365-3.008-3.008-5.374c-0.43-2.363-0.862-5.152-0.862-8.374v-23.21
				c0-2.793-0.643-4.939-1.931-6.444c-1.051-1.223-2.52-1.877-4.184-2.081h-2.354c-1.617,0.204-2.946,0.858-3.992,2.081
				c-1.288,1.285-1.934,3.436-1.934,6.444v28.578c0,5.801,0.859,10.311,2.579,13.319c1.718,2.579,3.867,4.517,6.447,6.018
				c2.792,1.507,6.014,2.149,9.452,2.149c3.008,0,5.588-0.429,7.734-1.077c2.363-0.859,4.3-1.931,6.233-3.433
				c1.934-1.291,3.864-3.222,5.588-5.371v1.714c0,2.579,0.643,4.729,1.934,6.018c1.285,1.507,2.789,2.149,4.727,2.149
				c2.146,0,3.65-0.643,4.938-1.937c1.291-1.501,1.937-3.435,1.937-6.23v-41.897c0-3.009-0.646-5.159-1.937-6.444
				c-1.045-1.223-2.375-1.877-4.104-2.081H354.875z M395.127,132.038c-3.643,0.204-6.861,0.858-9.65,2.081
				c-3.219,1.715-5.802,3.651-7.516,6.23c-1.721,2.576-2.582,5.372-2.582,8.161c0,3.228,0.861,6.018,2.795,8.384
				c1.934,2.149,4.297,3.87,7.521,5.371c3.006,1.288,7.089,2.579,12.031,3.867c4.513,1.078,7.738,2.15,9.669,3.222
				c1.934,1.291,2.792,3.009,2.792,5.588c0,1.721-0.858,3.225-2.792,4.51c-1.931,1.295-4.297,1.938-7.093,1.938
				c-3.65,0-6.446-0.643-8.38-1.938c-2.144-1.285-3.864-3.222-5.369-5.795c-0.858-1.294-1.504-2.365-2.362-3.225
				c-0.862-0.648-1.934-1.078-3.438-1.078c-1.721,0-3.225,0.648-4.303,1.721c-1.285,1.072-1.714,2.582-1.714,4.084
				c0,2.362,0.861,4.729,2.576,7.302c1.72,2.366,4.513,4.3,8.164,5.805c3.87,1.72,8.167,2.362,13.322,2.362
				c5.588,0,10.098-0.643,13.965-2.149c3.873-1.501,6.663-3.651,8.6-6.44c1.931-2.799,3.006-6.236,3.006-10.317
				c0-2.579-0.859-4.945-2.363-7.089c-1.501-1.937-3.654-3.867-6.443-5.375c-2.799-1.501-6.447-2.792-10.96-3.864
				c-3.867-0.864-6.662-1.724-8.81-2.366c-2.149-0.646-3.87-1.288-5.155-2.359c-1.291-0.862-1.937-2.156-1.937-3.657
				c0-1.718,0.858-3.009,2.582-4.297c1.718-1.072,3.864-1.504,6.443-1.504c2.576,0,4.513,0.432,6.015,1.291
				c1.504,0.643,2.795,1.931,3.87,3.222c1.504,1.717,2.576,3.009,3.648,3.867c1.078,0.858,2.366,1.288,3.87,1.288
				c1.934,0,3.654-0.43,4.729-1.504c1.071-1.072,1.717-2.577,1.717-4.081c0-1.507-0.646-3.222-1.717-4.729
				c-1.075-1.502-2.58-3.009-4.517-4.297c-1.931-1.291-4.51-2.363-7.519-3.223c-2.103-0.604-4.314-0.888-6.778-1.006H395.127z"/>
		</defs>
		<clipPath id="SVGID_12_">
			<use xlink:href="#SVGID_11_"  overflow="visible"/>
		</clipPath>
		<g clip-path="url(#SVGID_12_)">
			<defs>
				<rect id="SVGID_13_" x="304.901" y="132.038" width="119.577" height="58.804"/>
			</defs>
			<clipPath id="SVGID_14_">
				<use xlink:href="#SVGID_13_"  overflow="visible"/>
			</clipPath>
			<g transform="matrix(1 0 0 1 3.051758e-005 0)" clip-path="url(#SVGID_14_)">
				
					<image overflow="visible" width="168" height="83" xlink:href="1877A237.jpg"  transform="matrix(0.7118 0 0 0.7085 304.9014 132.0381)">
				</image>
			</g>
		</g>
	</g>
</g>
</svg>
