<?xml version="1.0" encoding="utf-8"?>
<!-- Generator: Adobe Illustrator 16.0.0, SVG Export Plug-In . SVG Version: 6.00 Build 0)  -->
<!DOCTYPE svg PUBLIC "-//W3C//DTD SVG 1.1//EN" "http://www.w3.org/Graphics/SVG/1.1/DTD/svg11.dtd">
<svg version="1.1" id="Layer_1" xmlns="http://www.w3.org/2000/svg" xmlns:xlink="http://www.w3.org/1999/xlink" x="0px" y="0px"
	 width="333.657px" height="235.531px" viewBox="133.171 182.234 333.657 235.531"
	 enable-background="new 133.171 182.234 333.657 235.531" xml:space="preserve">
<g id="Quotemarks-right">
	<path fill="#EC2029" d="M207.164,182.234c-40.802,0-73.993,33.19-73.993,73.993c0,39.361,30.889,71.645,69.701,73.875
		c0.672,7.256,0.168,27.005-18.757,54.478c-1.431,2.072-1.171,4.868,0.606,6.645c7.744,7.744,12.53,12.621,15.88,16.032
		c4.384,4.461,6.385,6.497,9.313,9.155c0.993,0.9,2.245,1.354,3.503,1.354c1.222,0,2.438-0.428,3.421-1.278
		c32.977-28.694,69.609-87.983,64.309-160.637C278.041,213.195,246.928,182.234,207.164,182.234z M213.467,405.43
		c-1.42-1.4-3.04-3.05-5.427-5.479c-2.902-2.958-6.884-7.011-12.922-13.069c22.967-35.391,18.629-60.598,16.73-64.213
		c-0.901-1.716-2.75-2.871-4.684-2.871c-35.049,0-63.565-28.517-63.565-63.571c0-35.049,28.517-63.565,63.565-63.565
		c34.143,0,60.883,26.892,63.586,63.942C276.707,338.32,228.141,391.377,213.467,405.43z"/>
	<path fill="#EC2029" d="M466.314,255.851v-0.006c-3.116-42.65-34.233-73.61-73.987-73.61c-40.803,0-73.998,33.19-73.998,73.993
		c0,39.361,30.895,71.645,69.711,73.875c0.672,7.25,0.162,26.989-18.767,54.478c-1.431,2.072-1.171,4.868,0.605,6.645
		c7.714,7.714,12.489,12.581,15.84,15.986c4.403,4.49,6.415,6.537,9.357,9.206c0.993,0.896,2.25,1.349,3.503,1.349
		c1.222,0,2.439-0.428,3.422-1.283C434.978,387.788,471.609,328.499,466.314,255.851z M398.63,405.43
		c-1.431-1.41-3.064-3.07-5.474-5.524c-2.901-2.953-6.867-6.995-12.881-13.023c22.967-35.396,18.635-60.598,16.741-64.213
		c-0.902-1.71-2.755-2.871-4.689-2.871c-35.055,0-63.571-28.517-63.571-63.571c0-35.049,28.517-63.565,63.571-63.565
		c34.138,0,60.883,26.892,63.591,63.947v-0.005C461.869,338.31,413.303,391.377,398.63,405.43z"/>
</g>
</svg>
